<svg viewBox="0 0 512 512" xmlns="http://www.w3.org/2000/svg">
  <rect x="23.0" y="218.8" width="18" height="74.4" rx="9.0" ry="9.0" fill="#1A1018"/>
  <rect x="51.0" y="212.5" width="18" height="87.0" rx="9.0" ry="9.0" fill="#1A1018"/>
  <rect x="79.0" y="205.3" width="18" height="101.4" rx="9.0" ry="9.0" fill="#1A1018"/>
  <rect x="107.0" y="171.6" width="18" height="168.8" rx="9.0" ry="9.0" fill="#1A1018"/>
  <rect x="135.0" y="141.1" width="18" height="229.8" rx="9.0" ry="9.0" fill="#1A1018"/>
  <rect x="163.0" y="149.6" width="18" height="212.8" rx="9.0" ry="9.0" fill="#1A1018"/>
  <rect x="191.0" y="129.7" width="18" height="252.6" rx="9.0" ry="9.0" fill="#1A1018"/>
  <rect x="219.0" y="73.2" width="18" height="365.6" rx="9.0" ry="9.0" fill="#1A1018"/>
  <rect x="247.0" y="85.7" width="18" height="340.7" rx="9.0" ry="9.0" fill="#1A1018"/>
  <rect x="275.0" y="130.1" width="18" height="251.9" rx="9.0" ry="9.0" fill="#1A1018"/>
  <rect x="303.0" y="113.7" width="18" height="284.7" rx="9.0" ry="9.0" fill="#1A1018"/>
  <rect x="331.0" y="110.6" width="18" height="290.8" rx="9.0" ry="9.0" fill="#1A1018"/>
  <rect x="359.0" y="161.3" width="18" height="189.4" rx="9.0" ry="9.0" fill="#1A1018"/>
  <rect x="387.0" y="189.5" width="18" height="133.1" rx="9.0" ry="9.0" fill="#1A1018"/>
  <rect x="415.0" y="191.3" width="18" height="129.3" rx="9.0" ry="9.0" fill="#1A1018"/>
  <rect x="443.0" y="207.5" width="18" height="97.0" rx="9.0" ry="9.0" fill="#1A1018"/>
  <rect x="471.0" y="225.1" width="18" height="61.9" rx="9.0" ry="9.0" fill="#1A1018"/>

</svg>