<svg viewBox="0 0 512 512" xmlns="http://www.w3.org/2000/svg">
  <circle cx="256" cy="256" r="228" fill="#1A1018"/>
  <circle cx="256" cy="256" r="108" fill="none" stroke="#2D2233" stroke-width="1" opacity="0.25"/>
  <circle cx="256" cy="256" r="119" fill="none" stroke="#2D2233" stroke-width="1" opacity="0.25"/>
  <circle cx="256" cy="256" r="130" fill="none" stroke="#2D2233" stroke-width="1" opacity="0.25"/>
  <circle cx="256" cy="256" r="141" fill="none" stroke="#2D2233" stroke-width="1" opacity="0.25"/>
  <circle cx="256" cy="256" r="152" fill="none" stroke="#2D2233" stroke-width="1" opacity="0.25"/>
  <circle cx="256" cy="256" r="163" fill="none" stroke="#2D2233" stroke-width="1" opacity="0.25"/>
  <circle cx="256" cy="256" r="174" fill="none" stroke="#2D2233" stroke-width="1" opacity="0.25"/>
  <circle cx="256" cy="256" r="185" fill="none" stroke="#2D2233" stroke-width="1" opacity="0.25"/>
  <circle cx="256" cy="256" r="196" fill="none" stroke="#2D2233" stroke-width="1" opacity="0.25"/>
  <circle cx="256" cy="256" r="207" fill="none" stroke="#2D2233" stroke-width="1" opacity="0.25"/>
  <circle cx="256" cy="256" r="218" fill="none" stroke="#2D2233" stroke-width="1" opacity="0.25"/>
  <path d="M390.5,161.8L391.4,163.1L392.2,164.4L393.1,165.7L393.9,167.0L394.8,168.3L395.6,169.6L396.4,170.9L397.2,172.3L398.0,173.6L398.8,175.0L399.5,176.3L400.3,177.7L401.0,179.0L401.7,180.4L402.4,181.8L403.1,183.2L403.8,184.6L404.5,186.0L405.1,187.4L405.8,188.8L406.4,190.2L407.0,191.6L407.6,193.1L408.2,194.5L408.8,195.9L409.3,197.4L409.9,198.8L410.4,200.3L410.9,201.8L411.4,203.2L411.9,204.7L412.4,206.2L412.9,207.7L413.3,209.1L413.8,210.6L414.2,212.1L414.6,213.6L415.0,215.1L415.4,216.6L415.7,218.1L416.1,219.7L416.4,221.2L416.7,222.7L417.1,224.2L417.3,225.7L417.6,227.3L417.9,228.8L418.1,230.3L418.4,231.9L418.6,233.4L418.8,234.9L419.0,236.5L419.2,238.0L419.3,239.6L419.5,241.1L419.6,242.6L419.7,244.2L419.8,245.7L419.9,247.3L420.0,248.8L420.1,250.4L420.1,251.9L420.1,253.5L420.2,255.0L420.2,256.6L420.1,258.1L420.1,259.7L420.1,261.3L420.0,262.8L419.9,264.4L419.9,265.9L419.8,267.5L419.6,269.0L419.5,270.5L419.4,272.1L419.2,273.6L419.0,275.2L418.8,276.7L418.6,278.3L418.4,279.8L418.2,281.3L417.9,282.9L417.7,284.4L417.4,285.9L417.1,287.4L416.8,289.0L416.5,290.5L416.2,292.0L415.8,293.5L415.5,295.0L415.1,296.5L414.7,298.0L414.3,299.5L413.9,301.0L413.4,302.5L413.0,304.0L412.5,305.5L412.1,307.0L411.6,308.4L411.1,309.9L410.5,311.4L410.0,312.8L409.5,314.3L408.9,315.7L408.3,317.2L407.8,318.6L407.2,320.0L406.5,321.5L405.9,322.9L405.3,324.3L404.6,325.7L404.0,327.1L403.3,328.5L402.6,329.9L401.9,331.3L401.2,332.6L400.4,334.0L399.7,335.4L398.9,336.7L398.2,338.1" fill="none" stroke="#FFFFFF" stroke-width="1.5" opacity="0.08" stroke-linecap="round"/>
  <circle cx="256" cy="256" r="88" fill="#FFF8F0"/>
  <circle cx="256" cy="256" r="13" fill="#FFFFFF"/>

</svg>