<svg viewBox="0 0 512 512" xmlns="http://www.w3.org/2000/svg">
  <defs><linearGradient id="g" gradientUnits="userSpaceOnUse" x1="17" y1="0" x2="495" y2="0"><stop offset="0%" stop-color="#D6246E"/><stop offset="50%" stop-color="#E8652B"/><stop offset="100%" stop-color="#F2A922"/></linearGradient></defs>
  <rect width="512" height="512" fill="#1A1018"/>
  <g transform="translate(16.6,133.7) scale(5.596) translate(-7.7,-20.5)"><path d="M8.6,63.8L22.7,64.3Q30.5,63.7,35.1,60.0Q38.3,57.2,37.8,53.0Q37.2,48.5,33.7,45.0Q32.0,43.5,29.7,42.7Q32.8,41.7,35.5,39.3Q38.0,36.8,38.4,32.6Q37.9,27.2,33.5,23.4Q29.6,20.5,21.8,21.1L7.7,20.6Z M20.1,36.8Q19.9,38.0,21.1,38.0L23.2,37.8Q26.5,37.6,28.3,35.7Q29.3,34.1,29.4,32.3Q29.2,29.9,27.3,28.5Q25.6,27.5,23.2,27.6L21.1,27.8Q19.9,27.8,20.1,29.0Z M20.3,57.8Q20.4,59.0,21.6,59.0L23.7,58.8Q27.6,58.5,29.2,56.3Q30.2,54.4,30.0,52.6Q29.6,50.2,27.6,48.5Q25.7,47.5,22.4,47.7L20.3,47.9Q19.1,47.9,19.2,49.1Z" fill="url(#g)"/></g>
  <g transform="translate(194.4,207.0) scale(5.596) translate(-228.1,-33.5)" opacity="0.55"><path d="M235.4,64.2L243.8,64.0L244.1,41.3L249.5,41.1Q250.8,41.1,250.7,39.8L250.0,34.8Q249.9,33.5,248.7,33.5L229.3,33.5Q228.1,33.5,228.2,34.8L228.9,39.8Q229.0,41.1,230.2,41.1L235.7,41.5Z" fill="url(#g)"/></g>
  <g transform="translate(327.5,133.2) scale(5.596) translate(-312.2,-20.5)"><path d="M313.1,63.8L325.1,64.4L324.1,45.2L325.6,45.1L332.0,63.9L342.2,63.8L331.7,43.5Q335.5,41.4,338.3,38.4Q341.2,35.5,341.3,31.9Q340.9,27.1,337.5,24.0Q333.5,20.5,326.3,21.1L312.2,20.6Z M325.0,38.0Q324.9,38.9,325.8,38.9L327.6,38.7Q330.0,38.6,331.5,36.3Q332.6,34.5,332.6,32.1Q332.5,29.7,330.8,28.3Q329.2,27.5,327.7,27.6L325.9,27.8Q325.0,27.8,325.1,28.7Z" fill="url(#g)"/></g>
</svg>