<svg viewBox="-40 -20 786.4 959.1" xmlns="http://www.w3.org/2000/svg">
  <defs>
    <linearGradient id="g" gradientUnits="userSpaceOnUse" x1="81" y1="508" x2="625" y2="783">
      <stop offset="0%" stop-color="#D6246E"/>
      <stop offset="50%" stop-color="#E8652B"/>
      <stop offset="100%" stop-color="#F2A922"/>
    </linearGradient>
  </defs>
  <!-- Faint tree watermark — white at 6% for dark backgrounds -->
  <g transform="translate(-73, 55) scale(0.74)" fill="#FFFFFF" stroke="none" opacity="0.06">
    <path d="M1024.58,418.59c-10.45-16.7-26.55-25.41-28.42-47.09-.6-7.07,3.4-11.71.74-22.08-2.21-8.53-35.74-51.65-43.71-56.95-6.84-4.57-20.11-6.43-23.3-9.62-3.69-3.68-7.3-22.85-14.67-32.1-9.87-12.39-24.44-12.78-29.31-19.21-5.53-7.3-2.68-20.04-10.32-27.8-7.51-7.64-18.12-4.91-26.04-8.61-6.96-3.25-13.07-16.24-21.84-19.77-12.86-5.17-25.45-.18-37.45-4.12-9.92-3.25-10.16-12.39-15.13-16.08-12.89-9.55-44.14,1.4-59.99-1.96-9.99-4.15-10.42-32.77-26.95-35.86-6.44-1.21-14.28,1.35-20.04.03-3.99-.91-5.57-14.92-18.13-17.31-18.1-3.44-65.69-.97-86.49-.05-22.31.97-17.63,3.19-41.82.14-19.81-2.51-32.68,7.43-44.65,6.67-9.65-.63-20.34-11.69-34.83-11.96-39.69-.75-56.28,38.98-96.26,32-19.39-3.39-46.46-13.35-66.9-16.37-26.18-3.87-27.14,11.84-44.09,21.39-12.65,7.14-29.4,5.39-36.4,19.04-3.35,6.56-2.53,16.05-6.1,21.62-2.91,4.53-16.5,10.38-22.38,15.75-6.79,6.2-19.92,22.9-25.76,26.22-12.63,7.18-31.88-1.23-40.24,9.19-5.47,6.81-7.49,23.23-12.19,31.95-3.85,7.14-15.51,14.35-17.93,23.62-5.42,20.75,8.09,30.92,6,47.37-2.62,20.63-28.84,23.17-24.27,62.78.83,7.15,13.15,45.18,16.42,52.78,1.81,4.24,7.3,4.02,7.86,6.71,2.45,11.42-3.44,27.06,4.13,38.61l94.62,-13.23c32.22,24.22,65.62,33.94,104.46,41.11,37.73,6.97,33.55,8.03,66.12,20.51,36.15,13.86,76.7-.24,107.43,13.87,17.86,8.2,32.2,22.43,38.18,41.53,21.01,67.02-44.2,131.38-19.92,201.48.07.13.12.26.14.41.28,2.03.32,4.06.13,6.05,2.64,39.57-24.54,73.18-27.9,111.64h.51c-.33,1.1-.51,2.27-.51,3.49c0,15,0,35,0,50.77c0,11.05,8.95,20,20,20h180c11.05,0,20,-8.95,20,-20c-2,-50,-3,-70,0,-97,3,-27,2.5,-50,0,-78,-2.5,-28,-3.5,-55,0,-82,3.5,-27,2,-60,0,-65,-2,-5,-2.5,-40,-2.2,-67.2,15.79-50.22,80.56-94,133.68-87.56,8.18.98,15.29,5.68,24.5,6.67,34.06,3.64,51.12-6.86,89.09,4.45,5.42,1.61,10.97,8.48,15.49,8.95,6.18.63,8.96-10.19,20.12-10.26,19.58-.14,39.62,23.81,68.68.5,8.48-6.8,8.41-65.64,7.81-80.11ZM371.15,401.49c16.84.62,36.79,2.49,41.92-17.11l4.31.14c20.12,8.73,32.26,23.53,33.21,45.98-2.64,9.24-42.98,6.3-51.8,4-12.28-3.22-31.12-18.56-27.63-33.01ZM355.53,512.4c-24.66-3.18-46.27-16.97-71.01-22.58-21.3-4.83-57.13.08-62.37-22.5,11.43-.96,24.53,1.75,35.63-.76,11.86-2.66,16.04-17.18,27.54-16.05,32.51,3.19,45.15,43.96,71.94,54.98l-1.73,6.9ZM491.29,508.44c-9.8-1.44-27.02-17.43-45.36-16.63-24.85,1.09-29.94,29.1-59.43,17.31-15-6-13.98-16.87-22.26-26.22-11.81-13.34-29.53-26.34-39.89-39.82-2.66-3.48-6.72-4.4-5.16-10.41l42.91-2.66c28.51,42.8,76.61,20.87,109.59,35.54,17.52,7.81,39.58,45.85,19.6,42.89ZM523.6,491.55l-17.22-26.03c-6.08-8.95-30.69-15.49-34.95-21.38-8.25-11.43-4.53-30.75-8.23-42.88-2.98-9.8-15.66-13.41-15.78-24.03,26.49,9.52,42.33,14.66,70.31,3.96,40.15,30.55,15.23,71.64,5.87,110.35ZM588.63,497.65c-9.04,7.74-29.45,4.58-33.21-8.61-3.23-11.33,5.38-22.34,6.37-33.84,1.02-12.09,1.82-40.84-.2-51.84-3.4-18.52-23.97-20.93-27.52-36.55,11.59,8.12,23.15-4.03,34.62,1.65,25.38,12.57,38.4,113.39,19.94,129.19ZM599.89,366.84l45.01-.04c3.65,7.09-9.5,71.08-24.18,76.24l-20.83-76.2ZM631.8,497.72c-3.39-1.92-8.53-16.34-7.82-21.52,1.09-7.89,16.91-21.25,21.17-31.2,7.36-17.15,9.21-42.38,13.68-60.87,13.18,9.65,41.72-8.68,43.4,12.02,1.93,23.73-8.2,45.43-19.84,65.3-8.54,14.58-29.41,48.31-50.58,36.28ZM765.73,447.53c-1.86,7.6-52.18,45.6-62.2,52.38-3.81,2.59-32.69,21.09-34.32,19.37,4.92-22.18,29.6-70.77,49.51-80.43,7.74-3.77,37.29-9.62,43.51-5.67,1.81,1.16,4.25,11.22,3.5,14.35ZM866.72,477.7c-16.01-1.39-34.64,1.93-50.24,0-6.52-.8-18.86-10.97-29.45-6.94-6.85-5.38,19.94-17.35,25.88-17.42,11.1-.13,40.56,9.38,49.43,16.43,2.81,2.22,6.34-.13,4.38,7.93Z"/>
  </g>
  <!-- BtR letters with per-letter gradient (v3 font, small t) -->
  <g fill="url(#g)" stroke="url(#g)" stroke-width="3" stroke-linejoin="round" stroke-linecap="round">
    <path d="M86.9,775.0Q86.9,779.5,91.4,779.5L175.5,782.9Q224.5,779.1,253.2,756.1Q273.5,738.0,270.1,711.6Q266.3,683.4,244.9,661.9Q233.9,652.1,223.4,648.7Q219.2,647.2,223.4,645.7Q238.8,640.8,256.2,626.1Q271.6,609.8,273.9,583.5Q271.2,549.5,243.4,525.8Q218.8,507.7,169.8,511.4L85.8,508.1Q81.2,508.1,81.2,512.6L86.9,775.0Z M159.3,560.8Q158.1,553.3,165.7,553.3L178.9,552.5Q194.0,551.4,204.5,558.2Q216.6,566.5,217.3,581.6Q217.0,592.9,210.6,603.1Q199.6,615.1,178.9,616.6L165.7,617.4Q158.1,617.4,159.3,609.8L159.3,560.8Z M153.2,687.1Q152.9,679.6,160.4,679.6L173.6,678.8Q194.3,677.3,206.0,683.7Q218.8,694.3,221.1,709.4Q222.6,720.7,216.6,732.4Q206.0,746.7,181.5,748.6L168.3,749.3Q160.8,749.3,160.4,741.8L153.2,687.1Z" fill-rule="evenodd"/>
    <path d="M330.1,778.9Q330.1,782.1,333.2,782.1L379.7,780.7Q382.9,780.7,382.9,777.6L384.4,641.4Q384.4,638.2,387.6,638.2L418.7,636.9Q426.7,637.2,426.1,629.3L421.9,597.6Q421.1,589.7,413.2,589.4L291.8,589.7Q283.9,589.4,284.7,597.3L288.9,629.0Q289.4,636.9,297.3,637.2L328.5,639.3Q331.7,639.5,331.7,642.7L330.1,778.9Z"/>
    <path d="M442.3,775.0Q442.3,779.5,446.8,779.9L513.2,782.9Q517.7,783.3,517.3,778.7L511.7,666.0Q511.7,662.6,515.1,662.6L517.7,662.2Q521.1,662.2,522.2,665.3L559.6,776.1Q561.1,780.2,565.6,780.2L620.6,779.5Q625.2,779.5,623.3,775.3L561.4,656.2Q559.6,652.1,563.7,649.8Q583.3,639.2,601.0,620.0Q618.7,601.9,619.9,579.3Q617.2,549.1,595.8,529.5Q570.5,507.7,525.3,511.4L441.2,508.1Q436.7,508.1,436.7,512.6L442.3,775.0Z M518.1,558.9Q517.3,553.3,523.0,553.3L534.3,552.5Q543.7,551.8,553.9,556.7Q564.5,565.4,565.2,580.4Q564.8,595.5,558.1,607.2Q548.6,621.2,533.5,622.3L522.2,623.0Q516.6,623.0,517.3,617.4L518.1,558.9Z" fill-rule="evenodd"/>
  </g>
</svg>