<svg viewBox="-40 0 790 990" xmlns="http://www.w3.org/2000/svg">
  <defs>
    <linearGradient id="g" gradientUnits="userSpaceOnUse" x1="81" y1="508" x2="625" y2="783">
      <stop offset="0%" stop-color="#D6246E"/>
      <stop offset="50%" stop-color="#E8652B"/>
      <stop offset="100%" stop-color="#F2A922"/>
    </linearGradient>
    <radialGradient id="rg" gradientUnits="userSpaceOnUse" cx="353" cy="645" r="400"><stop offset="0%" stop-color="#F2A922"/><stop offset="35%" stop-color="#E8652B"/><stop offset="100%" stop-color="#D6246E"/></radialGradient>
  </defs>
  <!-- Faint handprint watermark — white at 6% for dark backgrounds -->
  <g transform="translate(-175.077,969.158) scale(0.1,-0.1)" fill="#FFFFFF" stroke="none" opacity="0.06">
    <path d="M4540 9689 c-144 -13 -178 -26 -240 -90 -42 -43 -61 -72 -71 -106 -7 -27 -19 -59 -26 -73 -17 -32 -16 -72 1 -179 8 -47 19 -132 25 -189 7 -73 15 -112 30 -136 12 -18 21 -40 21 -47 0 -8 9 -32 21 -53 15 -29 23 -68 28 -143 5 -73 12 -108 24 -121 10 -11 19 -45 23 -91 6 -57 12 -78 29 -95 32 -30 63 -137 71 -241 6 -80 4 -96 -16 -143 -21 -50 -22 -57 -10 -125 7 -40 18 -107 24 -149 8 -49 19 -84 31 -98 16 -18 20 -37 20 -98 0 -75 1 -77 32 -97 40 -25 44 -61 9 -75 -30 -11 -46 -60 -46 -145 0 -33 -5 -89 -10 -125 -10 -73 21 -464 40 -500 6 -10 17 -54 26 -97 9 -43 22 -87 29 -98 7 -11 15 -34 19 -51 8 -36 80 -113 151 -160 39 -26 65 -35 117 -40 82 -8 102 2 154 80 l36 54 0 254 c0 139 3 341 6 448 7 197 3 259 -32 450 -26 141 -28 150 -45 163 -28 21 -69 90 -76 127 -3 19 -2 73 3 120 9 83 0 408 -13 481 -6 33 -3 40 38 82 42 44 45 45 61 28 9 -10 16 -31 16 -47 1 -16 7 -40 15 -54 19 -33 19 -110 0 -137 -12 -17 -14 -42 -8 -127 6 -108 23 -148 23 -56 0 44 3 52 24 60 32 12 34 26 40 285 3 130 10 235 20 275 18 83 29 371 17 475 -15 133 -42 246 -78 321 -44 94 -127 185 -205 224 -89 45 -232 70 -348 59z"/>
    <path d="M6412 9175 c-78 -14 -157 -58 -200 -112 -46 -57 -82 -119 -88 -153 -4 -19 -15 -52 -26 -73 -16 -32 -20 -75 -29 -267 -11 -254 -3 -371 30 -418 30 -44 55 -222 42 -302 -6 -36 -11 -114 -11 -175 -1 -176 -17 -366 -34 -406 -9 -21 -18 -85 -22 -155 -4 -81 -11 -124 -21 -136 -8 -9 -21 -37 -29 -63 -7 -27 -19 -53 -24 -60 -6 -7 -17 -46 -25 -86 -7 -41 -20 -90 -28 -109 -8 -19 -18 -64 -21 -100 -4 -36 -14 -91 -22 -123 -13 -52 -13 -68 0 -140 8 -45 17 -102 20 -126 7 -45 55 -154 90 -205 55 -78 150 -136 223 -136 89 0 241 104 294 200 11 19 33 56 49 83 18 29 34 73 41 115 6 37 19 108 30 158 14 63 22 159 28 310 7 155 14 229 24 254 8 19 18 71 22 115 3 44 13 106 20 137 31 127 47 450 32 628 -9 94 -9 96 21 150 16 30 32 69 36 85 4 17 13 37 20 45 8 8 16 34 20 58 4 24 16 57 29 74 21 28 22 39 20 186 -1 122 -5 167 -18 202 -10 25 -21 83 -25 130 -6 79 -24 130 -71 210 -5 8 -16 29 -25 45 -18 32 -84 105 -96 105 -4 0 -23 11 -42 24 -19 13 -58 26 -85 30 -28 4 -57 8 -64 10 -6 2 -45 -2 -85 -9z"/>
    <path d="M3284 8851 c-17 -4 -36 -11 -42 -15 -6 -3 -34 -11 -62 -16 -28 -5 -63 -19 -77 -30 -14 -11 -30 -20 -36 -20 -16 0 -71 -62 -97 -110 -23 -42 -25 -56 -28 -234 -3 -140 0 -211 12 -275 8 -47 20 -135 26 -196 8 -79 17 -122 34 -155 33 -65 64 -174 71 -255 4 -38 15 -97 24 -130 10 -33 24 -89 31 -125 6 -35 17 -76 25 -90 7 -14 16 -50 20 -80 3 -30 15 -81 26 -113 14 -43 21 -94 23 -189 l4 -130 33 -28 c22 -19 51 -32 80 -36 26 -3 52 -10 59 -14 22 -14 2 -58 -38 -85 -59 -39 -68 -48 -90 -92 -12 -23 -26 -44 -32 -48 -13 -8 -13 -131 1 -156 5 -11 16 -59 24 -106 13 -78 18 -90 53 -127 31 -32 41 -52 47 -90 5 -39 15 -58 50 -95 l44 -46 125 3 c110 3 130 1 165 -18 97 -49 193 -12 247 97 28 55 29 61 29 202 -1 128 -3 151 -22 186 -11 22 -24 55 -28 74 -7 31 -31 88 -76 173 -10 20 -19 43 -19 50 0 7 -11 33 -24 58 -13 25 -26 63 -30 85 -14 79 -56 169 -101 218 -43 46 -45 51 -45 107 0 91 17 116 40 60 14 -34 45 -40 55 -11 12 39 8 534 -5 584 -14 55 -2 133 31 198 10 20 21 68 25 105 3 38 15 108 25 156 21 98 24 176 9 228 -6 19 -20 68 -31 109 -11 41 -26 83 -34 95 -8 11 -15 29 -15 40 0 46 -62 146 -123 199 -105 90 -108 91 -237 94 -63 1 -129 -2 -146 -6z"/>
    <path d="M2010 7321 c-125 -28 -216 -154 -192 -266 8 -38 7 -55 -3 -76 -8 -15 -21 -55 -29 -90 -8 -35 -19 -82 -25 -104 -16 -62 -13 -154 9 -236 11 -41 20 -83 20 -94 0 -11 11 -41 25 -67 14 -26 25 -57 25 -69 0 -32 65 -122 103 -142 60 -33 112 -168 77 -203 -13 -13 -16 -80 -3 -96 6 -7 16 -38 22 -68 6 -30 18 -67 25 -82 8 -15 21 -52 30 -82 9 -30 21 -58 26 -61 13 -8 13 -130 -1 -178 -8 -31 -7 -47 10 -93 26 -68 38 -85 179 -254 63 -74 122 -153 133 -175 11 -22 26 -51 34 -65 8 -14 15 -43 15 -65 0 -50 20 -80 106 -160 69 -64 69 -65 129 -65 89 0 103 6 115 51 12 42 43 101 70 134 10 11 30 47 46 80 22 48 28 74 29 130 0 77 -13 117 -96 292 -27 56 -49 107 -49 113 0 32 -73 143 -132 200 l-66 65 -4 150 c-3 109 -9 160 -20 187 -27 60 -43 246 -39 443 4 234 -27 544 -66 650 -58 161 -99 213 -211 269 -45 23 -70 28 -155 31 -56 2 -118 1 -137 -4z"/>
    <path d="M8358 5997 c-20 -13 -59 -44 -87 -70 -27 -26 -54 -47 -59 -47 -12 0 -107 -57 -147 -88 -86 -65 -202 -177 -257 -246 -67 -85 -131 -219 -157 -329 -23 -98 -29 -302 -10 -370 8 -30 7 -49 -5 -85 -23 -71 -31 -253 -16 -380 14 -126 11 -136 -51 -172 -47 -28 -79 -58 -124 -115 -16 -21 -48 -54 -69 -74 -22 -20 -48 -44 -57 -53 -19 -18 -61 -42 -158 -92 -110 -56 -268 -60 -344 -10 -23 15 -46 33 -52 38 -5 6 -32 29 -60 51 -68 54 -166 156 -187 194 -10 17 -25 34 -35 37 -39 12 -48 23 -53 60 -5 36 -7 39 -35 37 -16 0 -39 -3 -50 -5 -19 -3 -20 2 -17 62 2 36 -5 106 -14 156 -16 90 -16 92 5 157 13 37 27 69 32 72 5 3 25 40 45 82 36 75 37 77 31 172 -3 54 -12 114 -21 135 -9 21 -16 51 -16 67 0 75 -21 127 -71 178 -28 28 -65 58 -82 67 -18 9 -41 24 -52 34 -11 10 -41 21 -68 24 -26 4 -66 16 -90 26 -23 10 -78 21 -122 25 -44 4 -116 15 -160 25 -44 10 -130 24 -190 30 -124 14 -229 4 -323 -31 -67 -24 -201 -34 -267 -19 -27 6 -63 14 -78 17 -36 7 -141 -23 -187 -54 -19 -13 -40 -23 -46 -23 -6 0 -19 -9 -29 -20 -10 -11 -27 -22 -39 -26 -11 -3 -45 -23 -75 -43 -91 -62 -86 -61 -246 -61 -128 0 -157 -3 -194 -20 -24 -11 -49 -20 -56 -20 -19 0 -123 -58 -180 -100 -69 -51 -205 -207 -205 -235 0 -4 -16 -32 -35 -61 -39 -59 -144 -167 -250 -256 -38 -33 -111 -101 -160 -151 -50 -51 -112 -105 -139 -121 -48 -29 -54 -30 -191 -32 -134 -1 -145 -3 -188 -28 -80 -47 -137 -135 -169 -261 -12 -49 -3 -177 18 -265 18 -74 20 -178 5 -230 -6 -19 -11 -60 -11 -90 0 -72 27 -287 47 -370 8 -36 21 -103 28 -150 7 -47 20 -98 28 -115 8 -16 18 -50 22 -75 4 -25 27 -86 51 -135 24 -50 48 -114 54 -143 5 -29 14 -61 20 -72 6 -11 17 -56 24 -100 8 -45 21 -91 29 -103 8 -12 17 -40 21 -62 4 -22 15 -67 26 -100 10 -33 21 -82 25 -110 3 -27 17 -82 31 -122 13 -39 24 -79 24 -88 0 -9 11 -37 25 -63 14 -26 25 -51 25 -57 0 -10 26 -50 95 -144 42 -58 63 -93 94 -157 10 -23 24 -45 30 -49 6 -3 18 -21 25 -40 8 -18 23 -42 33 -53 10 -11 41 -50 68 -86 156 -205 316 -376 405 -433 30 -20 67 -44 81 -53 14 -10 41 -23 60 -28 19 -6 54 -19 79 -28 37 -14 90 -18 286 -22 237 -4 243 -4 330 22 49 14 95 26 103 26 8 0 37 11 65 24 28 13 62 29 76 36 52 24 87 47 163 105 43 33 90 69 105 80 15 11 43 35 62 53 80 76 220 175 305 217 l60 30 425 0 c383 1 429 3 470 19 25 9 75 24 112 31 36 8 79 20 95 28 15 8 46 20 68 27 22 7 47 18 55 25 8 7 26 16 40 20 14 4 36 17 50 27 14 11 59 45 101 76 42 31 89 73 106 92 50 59 130 165 147 196 16 29 23 40 62 104 12 19 25 46 29 60 4 14 16 36 26 49 11 13 19 31 19 39 0 8 11 38 24 66 34 74 66 154 81 206 7 25 20 59 29 75 9 17 16 41 16 55 0 14 11 49 25 78 14 30 25 64 25 75 0 12 11 45 25 72 13 28 25 56 25 63 0 11 37 89 95 201 11 22 27 47 36 57 55 64 119 250 120 350 1 135 24 244 78 359 45 97 70 152 80 175 6 14 25 45 41 70 16 25 39 63 50 85 12 22 34 63 50 90 16 28 33 59 38 70 14 29 52 153 52 170 0 8 41 57 90 110 78 83 102 113 152 189 4 6 14 27 23 46 8 19 19 42 24 50 11 16 55 122 91 214 15 38 26 95 31 155 7 91 38 209 73 278 39 75 76 161 76 177 0 9 10 38 22 64 21 42 23 62 23 202 0 153 0 156 -27 194 -46 64 -71 83 -142 110 -94 36 -232 37 -288 3z"/>
  </g>
  <!-- Ripple arcs radiating from letter center -->
  <g>
    <path d="M490.9,529.3L497.2,537.3L503.1,545.7L508.5,554.3L513.4,563.3L517.8,572.5L521.6,582.0L524.9,591.6L527.7,601.5L529.8,611.4L531.5,621.5L532.5,631.7L533.0,641.9L532.9,652.1L532.2,662.3L530.9,672.4L529.1,682.4L526.7,692.3L523.7,702.1L520.2,711.7L516.1,721.1L511.6,730.2L506.5,739.0L500.9,747.6L494.8,755.8L488.3,763.7L481.4,771.2L474.0,778.2L466.3,784.9L458.2,791.1L449.7,796.8L441.0,802.0L431.9,806.8L422.6,811.0L413.1,814.7L403.4,817.8L393.5,820.4L383.5,822.4L373.4,823.8L363.2,824.7L353.0,825.0L342.8,824.7L332.6,823.8L322.5,822.4L312.5,820.4L302.6,817.8L292.9,814.7L283.4,811.0L274.1,806.8L265.0,802.0L256.3,796.8L247.8,791.1L239.7,784.9L232.0,778.2L224.6,771.2L217.7,763.7L211.2,755.8L205.1,747.6L199.5,739.0L194.4,730.2L189.9,721.1L185.8,711.7L182.3,702.1L179.3,692.3L176.9,682.4L175.1,672.4L173.8,662.3L173.1,652.1L173.0,641.9L173.5,631.7L174.5,621.5L176.2,611.4L178.3,601.5L181.1,591.6L184.4,582.0L188.2,572.5L192.6,563.3L197.5,554.3L202.9,545.7L208.8,537.3L215.1,529.3" fill="none" stroke="url(#rg)" stroke-width="22" stroke-linecap="round" opacity="0.35"/>
    <path d="M145.2,765.0L138.7,753.0L132.9,740.7L127.8,728.1L123.5,715.2L119.9,702.0L117.0,688.7L114.9,675.3L113.6,661.7L113.0,648.1L113.2,634.5L114.2,621.0L116.0,607.5L118.5,594.1L121.7,580.9L125.7,567.9L130.5,555.1L135.9,542.6L142.1,530.5L148.9,518.7L156.4,507.3L164.5,496.4L173.3,486.0L182.6,476.0L192.4,466.6L202.8,457.8L213.6,449.6L224.9,442.0L236.6,435.1L248.7,428.8L261.2,423.3L273.9,418.4L286.8,414.3L300.0,410.9L313.4,408.3L326.9,406.4L340.4,405.3L354.0,405.0L367.7,405.4L381.2,406.7L394.7,408.6L408.0,411.4L421.2,414.9L434.1,419.1L446.8,424.1L459.1,429.8L471.2,436.1L482.8,443.2L494.1,450.8L504.8,459.1L515.1,468.1L524.9,477.5L534.1,487.5L542.8,498.1L550.8,509.1L558.2,520.5L564.9,532.3L571.0,544.5L576.3,557.0L580.9,569.8L584.8,582.9L588.0,596.1L590.4,609.5L592.0,623.0L592.9,636.6L592.9,650.2L592.3,663.8L590.8,677.4L588.6,690.8L585.6,704.1L581.9,717.2L577.4,730.0L572.3,742.6L566.4,754.9L559.8,766.8L552.6,778.3L544.7,789.4L536.2,800.1L527.1,810.2L517.4,819.8L507.3,828.9" fill="none" stroke="url(#rg)" stroke-width="20" stroke-linecap="round" opacity="0.25"/>
    <path d="M552.3,407.5L566.4,420.1L579.7,433.6L592.2,447.8L603.8,462.8L614.5,478.4L624.1,494.7L632.8,511.5L640.4,528.9L647.0,546.6L652.4,564.8L656.8,583.2L660.0,601.9L662.0,620.7L663.0,639.6L662.7,658.5L661.3,677.4L658.7,696.2L655.1,714.7L650.2,733.0L644.3,751.0L637.3,768.6L629.2,785.7L620.1,802.3L610.0,818.3L598.9,833.7L587.0,848.4L574.1,862.3L560.4,875.4L546.0,887.6L530.8,898.9L515.0,909.3L498.5,918.7L481.6,927.1L464.1,934.4L446.2,940.7L428.0,945.8L409.5,949.8L390.8,952.7L371.9,954.4L353.0,955.0L334.1,954.4L315.2,952.7L296.5,949.8L278.0,945.8L259.8,940.7L241.9,934.4L224.4,927.1L207.5,918.7L191.0,909.3L175.2,898.9L160.0,887.6L145.6,875.4L131.9,862.3L119.0,848.4L107.1,833.7L96.0,818.3L85.9,802.3L76.8,785.7L68.7,768.6L61.7,751.0L55.8,733.0L50.9,714.7L47.3,696.2L44.7,677.4L43.3,658.5L43.0,639.6L44.0,620.7L46.0,601.9L49.2,583.2L53.6,564.8L59.0,546.6L65.6,528.9L73.2,511.5L81.9,494.7L91.5,478.4L102.2,462.8L113.8,447.8L126.3,433.6L139.6,420.1L153.7,407.5" fill="none" stroke="url(#rg)" stroke-width="18" stroke-linecap="round" opacity="0.18"/>
    <path d="M54.2,895.7L39.5,877.0L25.9,857.4L13.6,837.0L2.5,816.0L-7.3,794.2L-15.8,772.0L-22.8,749.2L-28.5,726.1L-32.7,702.6L-35.5,679.0L-36.9,655.2L-36.8,631.4L-35.2,607.6L-32.2,584.0L-27.8,560.6L-21.9,537.5L-14.6,514.8L-6.0,492.6L4.0,471.0L15.3,450.0L27.8,429.7L41.5,410.3L56.4,391.7L72.5,374.1L89.5,357.5L107.6,341.9L126.5,327.5L146.3,314.3L166.9,302.3L188.2,291.5L210.1,282.1L232.5,274.1L255.4,267.4L278.6,262.2L302.1,258.3L325.8,256.0L349.6,255.0L373.4,255.5L397.1,257.5L420.7,260.9L444.0,265.8L467.0,272.0L489.6,279.7L511.6,288.7L533.1,299.1L553.9,310.7L573.9,323.6L593.1,337.7L611.4,352.9L628.8,369.2L645.1,386.6L660.3,404.9L674.4,424.1L687.3,444.1L698.9,464.9L709.3,486.4L718.3,508.4L726.0,531.0L732.2,554.0L737.1,577.3L740.5,600.9L742.5,624.6L743.0,648.4L742.0,672.2L739.7,695.9L735.8,719.4L730.6,742.6L723.9,765.5L715.9,787.9L706.5,809.8L695.7,831.1L683.7,851.7L670.5,871.5L656.1,890.4L640.5,908.5L623.9,925.5L606.3,941.6L587.7,956.5L568.3,970.2L548.0,982.7" fill="none" stroke="url(#rg)" stroke-width="16" stroke-linecap="round" opacity="0.12"/>
  </g>
  <!-- BtR letters with primary gradient (v3 font, small t) -->
  <g fill="url(#g)" stroke="url(#g)" stroke-width="3" stroke-linejoin="round" stroke-linecap="round">
    <path d="M86.9,775.0Q86.9,779.5,91.4,779.5L175.5,782.9Q224.5,779.1,253.2,756.1Q273.5,738.0,270.1,711.6Q266.3,683.4,244.9,661.9Q233.9,652.1,223.4,648.7Q219.2,647.2,223.4,645.7Q238.8,640.8,256.2,626.1Q271.6,609.8,273.9,583.5Q271.2,549.5,243.4,525.8Q218.8,507.7,169.8,511.4L85.8,508.1Q81.2,508.1,81.2,512.6L86.9,775.0Z M159.3,560.8Q158.1,553.3,165.7,553.3L178.9,552.5Q194.0,551.4,204.5,558.2Q216.6,566.5,217.3,581.6Q217.0,592.9,210.6,603.1Q199.6,615.1,178.9,616.6L165.7,617.4Q158.1,617.4,159.3,609.8L159.3,560.8Z M153.2,687.1Q152.9,679.6,160.4,679.6L173.6,678.8Q194.3,677.3,206.0,683.7Q218.8,694.3,221.1,709.4Q222.6,720.7,216.6,732.4Q206.0,746.7,181.5,748.6L168.3,749.3Q160.8,749.3,160.4,741.8L153.2,687.1Z" fill-rule="evenodd"/>
    <path d="M330.1,778.9Q330.1,782.1,333.2,782.1L379.7,780.7Q382.9,780.7,382.9,777.6L384.4,641.4Q384.4,638.2,387.6,638.2L418.7,636.9Q426.7,637.2,426.1,629.3L421.9,597.6Q421.1,589.7,413.2,589.4L291.8,589.7Q283.9,589.4,284.7,597.3L288.9,629.0Q289.4,636.9,297.3,637.2L328.5,639.3Q331.7,639.5,331.7,642.7L330.1,778.9Z"/>
    <path d="M442.3,775.0Q442.3,779.5,446.8,779.9L513.2,782.9Q517.7,783.3,517.3,778.7L511.7,666.0Q511.7,662.6,515.1,662.6L517.7,662.2Q521.1,662.2,522.2,665.3L559.6,776.1Q561.1,780.2,565.6,780.2L620.6,779.5Q625.2,779.5,623.3,775.3L561.4,656.2Q559.6,652.1,563.7,649.8Q583.3,639.2,601.0,620.0Q618.7,601.9,619.9,579.3Q617.2,549.1,595.8,529.5Q570.5,507.7,525.3,511.4L441.2,508.1Q436.7,508.1,436.7,512.6L442.3,775.0Z M518.1,558.9Q517.3,553.3,523.0,553.3L534.3,552.5Q543.7,551.8,553.9,556.7Q564.5,565.4,565.2,580.4Q564.8,595.5,558.1,607.2Q548.6,621.2,533.5,622.3L522.2,623.0Q516.6,623.0,517.3,617.4L518.1,558.9Z" fill-rule="evenodd"/>
  </g>
</svg>