<svg viewBox="0 0 512 512" xmlns="http://www.w3.org/2000/svg">
  <defs>
    <radialGradient id="rg" gradientUnits="userSpaceOnUse" cx="256" cy="260" r="300">
      <stop offset="0%" stop-color="#FFB829"/>
      <stop offset="15%" stop-color="#F2A922"/>
      <stop offset="39%" stop-color="#E8652B"/>
      <stop offset="90%" stop-color="#D6246E"/>
    </radialGradient>

    <mask id="btr">
      <rect width="512" height="512" fill="black"/>
      <g fill="white" stroke="white" stroke-width="3" stroke-linejoin="round" stroke-linecap="round">
        <path d="M8.6,63.8L22.7,64.3Q30.5,63.7,35.1,60.0Q38.3,57.2,37.8,53.0Q37.2,48.5,33.7,45.0Q32.0,43.5,29.7,42.7Q32.8,41.7,35.5,39.3Q38.0,36.8,38.4,32.6Q37.9,27.2,33.5,23.4Q29.6,20.5,21.8,21.1L7.7,20.6Z M20.1,36.8Q19.9,38.0,21.1,38.0L23.2,37.8Q26.5,37.6,28.3,35.7Q29.3,34.1,29.4,32.3Q29.2,29.9,27.3,28.5Q25.6,27.5,23.2,27.6L21.1,27.8Q19.9,27.8,20.1,29.0Z M20.3,57.8Q20.4,59.0,21.6,59.0L23.7,58.8Q27.6,58.5,29.2,56.3Q30.2,54.4,30.0,52.6Q29.6,50.2,27.6,48.5Q25.7,47.5,22.4,47.7L20.3,47.9Q19.1,47.9,19.2,49.1Z" transform="translate(130.76,194.8) scale(2.800) translate(-7.7,-20.5)" fill-rule="evenodd"/>
        <path d="M235.4,64.2L243.8,64.0L244.1,41.3L249.5,41.1Q250.8,41.1,250.7,39.8L250.0,34.8Q249.9,33.5,248.7,33.5L229.3,33.5Q228.1,33.5,228.2,34.8L228.9,39.8Q229.0,41.1,230.2,41.1L235.7,41.5Z" transform="translate(225.2,231.5) scale(2.800) translate(-228.1,-33.5)"/>
        <path d="M313.1,63.8L325.1,64.4L324.1,45.2L325.6,45.1L332.0,63.9L342.2,63.8L331.7,43.5Q335.5,41.4,338.3,38.4Q341.2,35.5,341.3,31.9Q340.9,27.1,337.5,24.0Q333.5,20.5,326.3,21.1L312.2,20.6Z M325.0,38.0Q324.9,38.9,325.8,38.9L327.6,38.7Q330.0,38.6,331.5,36.3Q332.6,34.5,332.6,32.1Q332.5,29.7,330.8,28.3Q329.2,27.5,327.7,27.6L325.9,27.8Q325.0,27.8,325.1,28.7Z" transform="translate(297.24,194.5) scale(2.800) translate(-312.2,-20.5)" fill-rule="evenodd"/>
      </g>
    </mask>
  </defs>

  <rect x="23.0" y="187.8" width="18" height="136.4" rx="9.0" ry="9.0" fill="url(#rg)"/>
  <rect x="51.0" y="180.6" width="18" height="150.8" rx="9.0" ry="9.0" fill="url(#rg)"/>
  <rect x="79.0" y="172.3" width="18" height="167.3" rx="9.0" ry="9.0" fill="url(#rg)"/>
  <rect x="107.0" y="133.7" width="18" height="244.6" rx="9.0" ry="9.0" fill="url(#rg)"/>
  <rect x="135.0" y="98.7" width="18" height="88.4" rx="9.0" ry="9.0" fill="url(#rg)"/>
  <rect x="135.0" y="324.7" width="18" height="88.6" rx="9.0" ry="9.0" fill="url(#rg)"/>
  <rect x="163.0" y="108.4" width="18" height="79.6" rx="9.0" ry="9.0" fill="url(#rg)"/>
  <rect x="163.0" y="325.5" width="18" height="78.1" rx="9.0" ry="9.0" fill="url(#rg)"/>
  <rect x="191.0" y="85.6" width="18" height="103.0" rx="9.0" ry="9.0" fill="url(#rg)"/>
  <rect x="191.0" y="323.6" width="18" height="102.8" rx="9.0" ry="9.0" fill="url(#rg)"/>
  <rect x="219.0" y="20.8" width="18" height="187.8" rx="9.0" ry="9.0" fill="url(#rg)"/>
  <rect x="219.0" y="305.4" width="18" height="185.8" rx="9.0" ry="9.0" fill="url(#rg)"/>
  <rect x="247.0" y="35.1" width="18" height="188.4" rx="9.0" ry="9.0" fill="url(#rg)"/>
  <rect x="247.0" y="325.5" width="18" height="151.5" rx="9.0" ry="9.0" fill="url(#rg)"/>
  <rect x="275.0" y="86.0" width="18" height="100.8" rx="9.0" ry="9.0" fill="url(#rg)"/>
  <rect x="275.0" y="262.3" width="18" height="163.6" rx="9.0" ry="9.0" fill="url(#rg)"/>
  <rect x="303.0" y="67.2" width="18" height="119.9" rx="9.0" ry="9.0" fill="url(#rg)"/>
  <rect x="303.0" y="325.1" width="18" height="119.7" rx="9.0" ry="9.0" fill="url(#rg)"/>
  <rect x="331.0" y="63.7" width="18" height="124.3" rx="9.0" ry="9.0" fill="url(#rg)"/>
  <rect x="331.0" y="325.4" width="18" height="122.9" rx="9.0" ry="9.0" fill="url(#rg)"/>
  <rect x="359.0" y="121.9" width="18" height="69.6" rx="9.0" ry="9.0" fill="url(#rg)"/>
  <rect x="359.0" y="324.0" width="18" height="66.2" rx="9.0" ry="9.0" fill="url(#rg)"/>
  <rect x="387.0" y="154.1" width="18" height="203.7" rx="9.0" ry="9.0" fill="url(#rg)"/>
  <rect x="415.0" y="156.3" width="18" height="199.4" rx="9.0" ry="9.0" fill="url(#rg)"/>
  <rect x="443.0" y="174.8" width="18" height="162.4" rx="9.0" ry="9.0" fill="url(#rg)"/>
  <rect x="471.0" y="195.0" width="18" height="122.0" rx="9.0" ry="9.0" fill="url(#rg)"/>

  <g mask="url(#btr)">
    <circle cx="256" cy="260" r="10" fill="url(#rg)"/>
    <circle cx="256" cy="260" r="40" fill="none" stroke="url(#rg)" stroke-width="22"/>
    <circle cx="256" cy="260" r="66" fill="none" stroke="url(#rg)" stroke-width="21"/>
    <circle cx="256" cy="260" r="92" fill="none" stroke="url(#rg)" stroke-width="20"/>
    <circle cx="256" cy="260" r="118" fill="none" stroke="url(#rg)" stroke-width="19"/>
    <circle cx="256" cy="260" r="144" fill="none" stroke="url(#rg)" stroke-width="18"/>
    <circle cx="256" cy="260" r="170" fill="none" stroke="url(#rg)" stroke-width="17"/>
  </g>
</svg>
