<svg viewBox="0 0 545 90" xmlns="http://www.w3.org/2000/svg">
  <defs>
    <linearGradient id="grad" x1="0%" y1="0%" x2="100%" y2="0%">
      <stop offset="0%" stop-color="#D6246E"/>
      <stop offset="50%" stop-color="#E8652B"/>
      <stop offset="100%" stop-color="#F2A922"/>
    </linearGradient>
  </defs>
  <path d="M5.9,63.0 Q5.9,63.8,6.6,63.8 L20.0,64.3 Q27.8,63.7,32.4,60.0 Q35.6,57.2,35.1,53.0 Q34.5,48.5,31.0,45.0 Q29.3,43.5,27.6,42.9 Q27.0,42.7,27.6,42.5 Q30.1,41.7,32.8,39.3 Q35.3,36.8,35.7,32.6 Q35.2,27.2,30.8,23.4 Q26.9,20.5,19.1,21.1 L5.7,20.6 Q5.0,20.6,5.0,21.3 Z M17.4,29.0 Q17.2,27.8,18.4,27.8 L20.5,27.6 Q22.9,27.5,24.6,28.5 Q26.5,29.9,26.7,32.3 Q26.6,34.1,25.6,35.7 Q23.8,37.6,20.5,37.8 L18.4,38.0 Q17.2,38.0,17.4,36.8 Z M16.5,49.1 Q16.4,47.9,17.6,47.9 L19.7,47.7 Q23.0,47.5,24.9,48.5 Q26.9,50.2,27.3,52.6 Q27.5,54.4,26.5,56.3 Q24.9,58.5,21.0,58.8 L18.9,59.0 Q17.7,59.0,17.6,57.8 Z M40.1,63.8 L65.6,63.6 Q66.8,63.6,67.0,61.8 L66.9,54.6 Q66.6,52.8,65.4,52.8 L51.9,53.6 L51.1,47.0 L61.0,46.3 Q62.2,46.2,62.2,45.0 L62.8,39.0 Q63.0,37.8,61.8,37.9 L51.9,38.6 L52.5,32.0 L66.0,31.2 Q67.2,31.2,67.0,29.4 L66.1,22.2 Q65.9,20.4,64.7,20.4 L39.2,20.6 Z M71.0,20.4 L80.6,44.4 L81.5,64.2 L93.5,63.9 L92.6,44.1 L102.2,20.5 L89.0,21.0 Q96.3,32.6,87.3,38.6 Q79.5,32.9,84.2,21.2 Z M120.9,64.9 Q129.3,64.3,134.5,58.8 Q138.0,54.2,137.3,42.2 Q138.4,30.2,133.9,25.2 Q128.5,19.9,120.1,20.5 Q111.7,20.4,107.5,25.4 Q104.5,30.0,103.4,42.0 Q104.1,54.0,108.1,59.0 Q112.5,64.8,120.9,64.9 Z M121.1,55.9 Q115.7,56.0,113.1,49.8 Q111.6,46.2,111.8,42.6 Q112.3,39.0,114.0,35.4 Q115.9,30.8,121.3,30.7 Q126.7,30.3,128.4,35.0 Q129.1,38.5,128.6,42.1 Q128.4,45.7,127.5,49.4 Q126.5,55.5,121.1,55.9 Z M139.4,63.8 L151.4,64.4 L150.6,43.4 L157.4,64.0 L169.4,63.8 L168.5,20.6 L156.5,20.8 L156.7,41.8 L150.5,21.2 L138.5,20.6 Z M176.6,63.0 Q176.6,63.8,177.3,63.8 L188.9,64.4 Q197.3,63.8,202.5,58.8 Q206.8,53.6,206.1,42.2 Q207.2,30.8,201.8,25.2 Q196.4,20.6,188.0,21.2 L176.4,20.6 Q175.7,20.6,175.7,21.3 Z M188.2,30.5 Q188.2,29.3,189.4,29.3 L190.3,29.2 Q194.2,28.9,196.5,32.7 Q197.7,36.2,196.8,42.2 Q196.8,48.2,195.7,51.9 Q194.2,55.9,190.3,56.2 L189.4,56.3 Q188.2,56.3,188.0,55.1 Z" fill="#FFF8F0"/>
  <path d="M225.8,63.9 Q225.8,64.4,226.4,64.4 L233.7,64.2 Q234.2,64.2,234.2,63.7 L234.5,42.0 Q234.5,41.5,235.0,41.5 L240.0,41.3 Q241.2,41.3,241.1,40.0 L240.5,35.0 Q240.3,33.8,239.1,33.7 L219.8,33.8 Q218.5,33.7,218.6,35.0 L219.3,40.0 Q219.4,41.3,220.6,41.3 L225.6,41.6 Q226.1,41.7,226.1,42.2 Z M241.8,64.0 L250.2,64.5 L249.6,52.7 L253.8,52.4 L254.4,64.2 L262.8,64.1 L262.2,33.8 L253.8,34.0 L254.4,45.7 L250.2,46.0 L249.6,34.2 L241.2,33.8 Z M267.9,64.0 L285.7,63.9 Q286.5,63.9,286.7,62.7 L286.6,57.6 Q286.4,56.4,285.5,56.3 L276.1,56.9 L275.6,52.3 L282.5,51.8 Q283.3,51.8,283.3,50.9 L283.8,46.7 Q283.9,45.9,283.1,45.9 L276.1,46.4 L276.5,41.8 L286.0,41.2 Q286.8,41.3,286.7,40.0 L286.0,35.0 Q285.9,33.7,285.1,33.7 L267.2,33.8 Z" fill="#FFF8F0" opacity="0.5"/>
  <path d="M298.4,63.0 Q298.4,63.8,299.1,63.8 L309.7,64.3 Q310.4,64.4,310.3,63.6 L309.4,45.7 Q309.4,45.2,310.0,45.2 L310.4,45.1 Q310.9,45.1,311.1,45.6 L317.0,63.2 Q317.3,63.9,318.0,63.9 L326.8,63.8 Q327.5,63.8,327.2,63.1 L317.3,44.1 Q317.0,43.5,317.7,43.1 Q320.8,41.4,323.6,38.4 Q326.5,35.5,326.6,31.9 Q326.2,27.1,322.8,24.0 Q318.8,20.5,311.6,21.1 L298.2,20.6 Q297.5,20.6,297.5,21.3 Z M310.4,28.7 Q310.3,27.8,311.2,27.8 L313.0,27.6 Q314.5,27.5,316.1,28.3 Q317.8,29.7,317.9,32.1 Q317.9,34.5,316.8,36.3 Q315.3,38.6,312.9,38.7 L311.1,38.9 Q310.2,38.9,310.3,38.0 Z M332.6,63.8 L344.6,64.4 L343.7,47.6 L349.7,47.2 L350.6,64.0 L362.6,63.8 L361.7,20.6 L349.7,20.8 L350.5,37.6 L344.5,38.0 L343.7,21.2 L331.7,20.6 Z M368.9,20.4 L378.5,44.4 L379.4,64.2 L391.4,63.9 L390.5,44.1 L400.1,20.5 L386.9,21.0 Q394.1,32.6,385.2,38.6 Q377.3,32.9,382.1,21.2 Z M411.8,63.5 Q411.8,64.2,412.5,64.2 L423.1,63.9 Q423.8,63.9,423.8,63.2 L424.1,32.3 Q424.1,31.5,424.9,31.5 L431.9,31.2 Q433.7,31.3,433.6,29.5 L432.7,22.3 Q432.5,20.5,430.7,20.4 L403.1,20.5 Q401.3,20.4,401.5,22.2 L402.4,29.4 Q402.5,31.2,404.3,31.3 L411.4,31.8 Q412.1,31.8,412.1,32.6 Z M434.6,63.8 L446.6,64.4 L445.7,47.6 L451.7,47.2 L452.6,64.0 L464.6,63.8 L463.7,20.6 L451.7,20.8 L452.5,37.6 L446.5,38.0 L445.7,21.2 L433.7,20.6 Z M471.8,63.7 L483.8,64.4 L483.2,41.6 L488.5,57.0 L492.1,56.7 L495.8,40.8 L496.4,63.6 L508.4,64.2 L507.5,21.0 L494.9,20.4 L489.1,44.8 L483.5,21.2 L470.9,20.5 Z" fill="url(#grad)"/>
</svg>