<svg viewBox="0 0 545 90" xmlns="http://www.w3.org/2000/svg">
  <defs>
    <linearGradient id="grad" x1="0%" y1="0%" x2="100%" y2="0%">
      <stop offset="0%" stop-color="#D6246E"/>
      <stop offset="50%" stop-color="#E8652B"/>
      <stop offset="100%" stop-color="#F2A922"/>
    </linearGradient>
  </defs>
  <rect width="545" height="90" fill="#FFFFFF"/>
  <path d="M8.6,63.8L22.7,64.3Q30.5,63.7,35.1,60.0Q38.3,57.2,37.8,53.0Q37.2,48.5,33.7,45.0Q32.0,43.5,29.7,42.7Q32.8,41.7,35.5,39.3Q38.0,36.8,38.4,32.6Q37.9,27.2,33.5,23.4Q29.6,20.5,21.8,21.1L7.7,20.6Z M20.1,36.8Q19.9,38.0,21.1,38.0L23.2,37.8Q26.5,37.6,28.3,35.7Q29.3,34.1,29.4,32.3Q29.2,29.9,27.3,28.5Q25.6,27.5,23.2,27.6L21.1,27.8Q19.9,27.8,20.1,29.0Z M20.3,57.8Q20.4,59.0,21.6,59.0L23.7,58.8Q27.6,58.5,29.2,56.3Q30.2,54.4,30.0,52.6Q29.6,50.2,27.6,48.5Q25.7,47.5,22.4,47.7L20.3,47.9Q19.1,47.9,19.2,49.1Z M44.8,63.8L70.3,63.6Q71.5,63.6,71.7,61.8L71.6,54.6Q71.3,52.8,70.1,52.8L56.6,53.6L55.8,47.0L65.7,46.3Q66.9,46.2,66.9,45.0L67.5,39.0Q67.7,37.8,66.5,37.9L56.6,38.6L57.2,32.0L70.7,31.2Q71.9,31.2,71.7,29.4L70.8,22.2Q70.6,20.4,69.4,20.4L43.9,20.6Z M74.4,20.4L84.0,44.4L84.9,64.2L96.9,63.9L96.0,44.1L105.6,20.5L92.4,21.0Q99.7,32.6,90.7,38.6Q82.9,32.9,87.6,21.2Z M126.4,64.9Q134.8,64.3,140.1,58.8Q143.5,54.2,142.8,42.2Q143.9,30.2,139.4,25.2Q134.0,19.9,125.6,20.5Q117.2,20.4,113.0,25.4Q110.0,30.0,108.9,42.0Q109.6,54.0,113.7,59.0Q118.0,64.8,126.4,64.9Z M126.6,55.9Q121.2,56.0,118.6,49.8Q117.1,46.2,117.3,42.6Q117.9,39.0,119.5,35.4Q121.4,30.8,126.8,30.7Q132.2,30.3,133.9,35.0Q134.7,38.5,134.1,42.1Q133.9,45.7,133.0,49.4Q132.0,55.5,126.6,55.9Z M150.1,63.8L162.1,64.4L161.3,43.4L168.1,64.0L180.1,63.8L179.2,20.6L167.2,20.8L167.4,41.8L161.2,21.2L149.2,20.6Z M189.3,63.8L201.6,64.4Q210.0,63.8,215.2,58.8Q219.5,53.6,218.8,42.2Q219.9,30.8,214.5,25.2Q209.1,20.6,200.7,21.2L188.4,20.6Z M200.7,55.1Q200.9,56.3,202.1,56.3L203.0,56.2Q206.9,55.9,208.4,51.9Q209.5,48.2,209.5,42.2Q210.4,36.2,209.2,32.7Q206.9,28.9,203.0,29.2L202.1,29.3Q200.9,29.3,200.9,30.5Z" fill="#1A1018"/>
  <path d="M235.4,64.2L243.8,64.0L244.1,41.3L249.5,41.1Q250.8,41.1,250.7,39.8L250.0,34.8Q249.9,33.5,248.7,33.5L229.3,33.5Q228.1,33.5,228.2,34.8L228.9,39.8Q229.0,41.1,230.2,41.1L235.7,41.5Z M254.7,63.8L263.1,64.3L262.5,52.5L266.7,52.2L267.3,64.0L275.7,63.9L275.1,33.6L266.7,33.8L267.3,45.5L263.1,45.8L262.5,34.0L254.1,33.6Z M281.7,63.8L299.6,63.7Q300.4,63.7,300.6,62.5L300.5,57.4Q300.3,56.2,299.4,56.1L290.0,56.7L289.5,52.1L296.4,51.6Q297.2,51.6,297.2,50.7L297.7,46.5Q297.8,45.7,296.9,45.7L290.0,46.2L290.4,41.6L299.8,41.0Q300.7,41.1,300.6,39.8L299.9,34.8Q299.8,33.5,299.0,33.5L281.1,33.6Z" fill="#1A1018" opacity="0.4"/>
  <path d="M313.1,63.8L325.1,64.4L324.1,45.2L325.6,45.1L332.0,63.9L342.2,63.8L331.7,43.5Q335.5,41.4,338.3,38.4Q341.2,35.5,341.3,31.9Q340.9,27.1,337.5,24.0Q333.5,20.5,326.3,21.1L312.2,20.6Z M325.0,38.0Q324.9,38.9,325.8,38.9L327.6,38.7Q330.0,38.6,331.5,36.3Q332.6,34.5,332.6,32.1Q332.5,29.7,330.8,28.3Q329.2,27.5,327.7,27.6L325.9,27.8Q325.0,27.8,325.1,28.7Z M349.3,63.8L361.3,64.4L360.4,47.6L366.4,47.2L367.3,64.0L379.3,63.8L378.4,20.6L366.4,20.8L367.2,37.6L361.2,38.0L360.4,21.2L348.4,20.6Z M384.3,20.4L393.9,44.4L394.8,64.2L406.8,63.9L405.9,44.1L415.5,20.5L402.3,21.0Q409.5,32.6,400.6,38.6Q392.7,32.9,397.5,21.2Z M429.2,64.2L441.2,63.9L441.5,31.5L449.3,31.2Q451.1,31.3,451.0,29.5L450.1,22.3Q449.9,20.5,448.1,20.4L420.5,20.5Q418.7,20.4,418.9,22.2L419.8,29.4Q419.9,31.2,421.7,31.3L429.5,31.8Z M457.3,63.8L469.3,64.4L468.4,47.6L474.4,47.2L475.3,64.0L487.3,63.8L486.4,20.6L474.4,20.8L475.2,37.6L469.2,38.0L468.4,21.2L456.4,20.6Z M495.6,63.7L507.6,64.4L507.0,41.6L512.3,57.0L515.9,56.7L519.6,40.8L520.2,63.6L532.2,64.2L531.3,21.0L518.7,20.4L512.9,44.8L507.3,21.2L494.7,20.5Z" fill="url(#grad)"/>
</svg>