<svg viewBox="0 0 238 169" xmlns="http://www.w3.org/2000/svg">
  <defs>
    <linearGradient id="grad" x1="0%" y1="0%" x2="100%" y2="0%">
      <stop offset="0%" stop-color="#D6246E"/>
      <stop offset="50%" stop-color="#E8652B"/>
      <stop offset="100%" stop-color="#F2A922"/>
    </linearGradient>
  </defs>
  <rect width="238" height="169" fill="#1A1018"/>
  <path d="M22.2,57.7 Q22.2,58.4,23.0,58.4 L36.3,58.9 Q44.1,58.3,48.7,54.7 Q51.9,51.8,51.4,47.6 Q50.8,43.1,47.4,39.7 Q45.6,38.1,44.0,37.6 Q43.3,37.3,44.0,37.1 Q46.4,36.3,49.2,34.0 Q51.6,31.4,52.0,27.2 Q51.6,21.8,47.1,18.0 Q43.2,15.1,35.4,15.7 L22.1,15.2 Q21.3,15.2,21.3,15.9 Z M33.8,23.6 Q33.6,22.4,34.8,22.4 L36.9,22.3 Q39.3,22.1,41.0,23.2 Q42.9,24.5,43.0,26.9 Q42.9,28.7,41.9,30.3 Q40.2,32.2,36.9,32.5 L34.8,32.6 Q33.6,32.6,33.8,31.4 Z M32.8,43.7 Q32.7,42.5,33.9,42.5 L36.0,42.4 Q39.3,42.1,41.2,43.1 Q43.2,44.8,43.6,47.2 Q43.8,49.0,42.9,50.9 Q41.2,53.2,37.3,53.5 L35.2,53.6 Q34.0,53.6,33.9,52.4 Z M54.9,58.4 L80.4,58.2 Q81.6,58.3,81.8,56.5 L81.7,49.3 Q81.4,47.5,80.2,47.4 L66.7,48.2 L65.9,41.6 L75.8,40.9 Q77.0,40.9,77.0,39.7 L77.6,33.7 Q77.8,32.5,76.6,32.5 L66.7,33.2 L67.3,26.6 L80.8,25.8 Q82.0,25.9,81.8,24.1 L80.9,16.9 Q80.7,15.1,79.5,15.0 L54.0,15.2 Z M83.9,15.1 L93.5,39.1 L94.4,58.9 L106.4,58.6 L105.5,38.8 L115.1,15.1 L101.9,15.7 Q109.1,27.2,100.2,33.2 Q92.3,27.5,97.1,15.8 Z M134.6,59.5 Q143.0,58.9,148.2,53.5 Q151.7,48.8,151.0,36.8 Q152.0,24.8,147.5,19.9 Q142.1,14.5,133.7,15.1 Q125.3,15.0,121.1,20.0 Q118.1,24.7,117.1,36.7 Q117.8,48.7,121.8,53.6 Q126.2,59.4,134.6,59.5 Z M134.8,50.5 Q129.4,50.6,126.7,44.5 Q125.3,40.8,125.5,37.2 Q126.0,33.6,127.7,30.1 Q129.5,25.4,134.9,25.3 Q140.3,24.9,142.1,29.6 Q142.8,33.1,142.3,36.7 Q142.1,40.3,141.1,44.0 Q140.2,50.1,134.8,50.5 Z M154.1,58.4 L166.1,59.0 L165.2,38.0 L172.1,58.6 L184.1,58.4 L183.2,15.2 L171.2,15.4 L171.4,36.4 L165.2,15.8 L153.2,15.2 Z M187.0,57.7 Q187.0,58.4,187.7,58.4 L199.3,59.0 Q207.7,58.4,212.8,53.4 Q217.1,48.2,216.5,36.8 Q217.6,25.4,212.2,19.8 Q206.8,15.2,198.4,15.8 L186.8,15.2 Q186.1,15.2,186.1,15.9 Z M198.6,25.1 Q198.5,23.9,199.7,23.9 L200.6,23.8 Q204.5,23.5,206.8,27.3 Q208.1,30.8,207.2,36.8 Q207.1,42.8,206.0,46.5 Q204.5,50.5,200.6,50.8 L199.7,50.9 Q198.5,50.9,198.4,49.7 Z" fill="#FFF8F0"/>
  <path d="M92.4,99.7 Q92.4,100.2,92.9,100.2 L100.3,100.0 Q100.8,100.0,100.8,99.5 L101.1,77.8 Q101.1,77.3,101.6,77.3 L106.5,77.1 Q107.8,77.2,107.7,75.9 L107.0,70.9 Q106.9,69.6,105.6,69.6 L86.3,69.6 Q85.1,69.6,85.2,70.8 L85.9,75.9 Q85.9,77.1,87.2,77.2 L92.2,77.5 Q92.7,77.5,92.7,78.0 Z M110.3,99.9 L118.7,100.3 L118.1,88.5 L122.3,88.3 L122.9,100.1 L131.3,99.9 L130.7,69.7 L122.3,69.8 L122.9,81.6 L118.7,81.8 L118.1,70.1 L109.7,69.6 Z M134.0,99.9 L151.8,99.8 Q152.7,99.8,152.8,98.5 L152.7,93.5 Q152.5,92.2,151.6,92.2 L142.2,92.7 L141.7,88.1 L148.6,87.7 Q149.5,87.6,149.5,86.8 L149.9,82.6 Q150.0,81.7,149.2,81.8 L142.2,82.2 L142.6,77.6 L152.1,77.1 Q152.9,77.1,152.8,75.9 L152.1,70.8 Q152.0,69.6,151.2,69.5 L133.3,69.6 Z" fill="#FFF8F0" opacity="0.5"/>
  <path d="M18.7,152.9 Q18.7,153.6,19.4,153.7 L29.9,154.2 Q30.7,154.2,30.6,153.5 L29.7,135.6 Q29.7,135.0,30.2,135.0 L30.7,135.0 Q31.2,135.0,31.4,135.4 L37.3,153.1 Q37.6,153.7,38.3,153.7 L47.0,153.6 Q47.8,153.6,47.5,153.0 L37.6,134.0 Q37.3,133.3,38.0,133.0 Q41.1,131.3,43.9,128.2 Q46.7,125.4,46.9,121.8 Q46.5,117.0,43.1,113.8 Q39.1,110.4,31.9,111.0 L18.5,110.4 Q17.8,110.4,17.8,111.1 Z M30.7,118.5 Q30.6,117.6,31.5,117.6 L33.3,117.5 Q34.8,117.4,36.4,118.2 Q38.1,119.5,38.2,121.9 Q38.2,124.3,37.1,126.2 Q35.6,128.4,33.2,128.6 L31.4,128.7 Q30.5,128.7,30.6,127.8 Z M50.5,153.6 L62.5,154.2 L61.6,137.4 L67.6,137.1 L68.5,153.9 L80.5,153.7 L79.6,110.5 L67.6,110.7 L68.4,127.5 L62.4,127.8 L61.6,111.0 L49.6,110.4 Z M82.5,110.3 L92.1,134.3 L93.0,154.1 L105.0,153.8 L104.1,134.0 L113.7,110.4 L100.5,110.9 Q107.7,122.4,98.8,128.4 Q90.9,122.7,95.7,111.1 Z M126.0,153.4 Q126.0,154.1,126.7,154.1 L137.3,153.8 Q138.0,153.8,138.0,153.1 L138.3,122.1 Q138.3,121.4,139.1,121.4 L146.1,121.1 Q147.9,121.2,147.8,119.4 L146.9,112.2 Q146.7,110.4,144.9,110.3 L117.3,110.4 Q115.5,110.3,115.7,112.1 L116.6,119.3 Q116.7,121.1,118.5,121.2 L125.6,121.6 Q126.3,121.7,126.3,122.4 Z M150.7,153.6 L162.7,154.2 L161.8,137.4 L167.8,137.1 L168.7,153.9 L180.7,153.7 L179.8,110.5 L167.8,110.7 L168.7,127.5 L162.7,127.8 L161.8,111.0 L149.8,110.4 Z M183.6,153.6 L195.6,154.3 L195.0,131.5 L200.4,146.8 L204.0,146.5 L207.6,130.7 L208.2,153.5 L220.2,154.1 L219.3,110.9 L206.7,110.3 L201.0,134.7 L195.3,111.0 L182.7,110.4 Z" fill="url(#grad)"/>
</svg>