<svg viewBox="-220 -35 1145 1075" xmlns="http://www.w3.org/2000/svg">
  <defs>
    <linearGradient id="grad" x1="0%" y1="0%" x2="100%" y2="0%">
      <stop offset="0%" stop-color="#D6246E"/>
      <stop offset="50%" stop-color="#E8652B"/>
      <stop offset="100%" stop-color="#F2A922"/>
    </linearGradient>
    <radialGradient id="rg" gradientUnits="userSpaceOnUse" cx="353" cy="537" r="560">
      <stop offset="0%" stop-color="#F2A922"/>
      <stop offset="35%" stop-color="#E8652B"/>
      <stop offset="100%" stop-color="#D6246E"/>
    </radialGradient>
  </defs>
  <!-- Ripple arcs (2e style) — centered on text, scaled to encircle tree -->
  <g transform="translate(-141.2, -366) scale(1.4)">
    <path d="M490.9,529.3L497.2,537.3L503.1,545.7L508.5,554.3L513.4,563.3L517.8,572.5L521.6,582.0L524.9,591.6L527.7,601.5L529.8,611.4L531.5,621.5L532.5,631.7L533.0,641.9L532.9,652.1L532.2,662.3L530.9,672.4L529.1,682.4L526.7,692.3L523.7,702.1L520.2,711.7L516.1,721.1L511.6,730.2L506.5,739.0L500.9,747.6L494.8,755.8L488.3,763.7L481.4,771.2L474.0,778.2L466.3,784.9L458.2,791.1L449.7,796.8L441.0,802.0L431.9,806.8L422.6,811.0L413.1,814.7L403.4,817.8L393.5,820.4L383.5,822.4L373.4,823.8L363.2,824.7L353.0,825.0L342.8,824.7L332.6,823.8L322.5,822.4L312.5,820.4L302.6,817.8L292.9,814.7L283.4,811.0L274.1,806.8L265.0,802.0L256.3,796.8L247.8,791.1L239.7,784.9L232.0,778.2L224.6,771.2L217.7,763.7L211.2,755.8L205.1,747.6L199.5,739.0L194.4,730.2L189.9,721.1L185.8,711.7L182.3,702.1L179.3,692.3L176.9,682.4L175.1,672.4L173.8,662.3L173.1,652.1L173.0,641.9L173.5,631.7L174.5,621.5L176.2,611.4L178.3,601.5L181.1,591.6L184.4,582.0L188.2,572.5L192.6,563.3L197.5,554.3L202.9,545.7L208.8,537.3L215.1,529.3" fill="none" stroke="url(#rg)" stroke-width="22" stroke-linecap="round" opacity="0.35"/>
    <path d="M145.2,765.0L138.7,753.0L132.9,740.7L127.8,728.1L123.5,715.2L119.9,702.0L117.0,688.7L114.9,675.3L113.6,661.7L113.0,648.1L113.2,634.5L114.2,621.0L116.0,607.5L118.5,594.1L121.7,580.9L125.7,567.9L130.5,555.1L135.9,542.6L142.1,530.5L148.9,518.7L156.4,507.3L164.5,496.4L173.3,486.0L182.6,476.0L192.4,466.6L202.8,457.8L213.6,449.6L224.9,442.0L236.6,435.1L248.7,428.8L261.2,423.3L273.9,418.4L286.8,414.3L300.0,410.9L313.4,408.3L326.9,406.4L340.4,405.3L354.0,405.0L367.7,405.4L381.2,406.7L394.7,408.6L408.0,411.4L421.2,414.9L434.1,419.1L446.8,424.1L459.1,429.8L471.2,436.1L482.8,443.2L494.1,450.8L504.8,459.1L515.1,468.1L524.9,477.5L534.1,487.5L542.8,498.1L550.8,509.1L558.2,520.5L564.9,532.3L571.0,544.5L576.3,557.0L580.9,569.8L584.8,582.9L588.0,596.1L590.4,609.5L592.0,623.0L592.9,636.6L592.9,650.2L592.3,663.8L590.8,677.4L588.6,690.8L585.6,704.1L581.9,717.2L577.4,730.0L572.3,742.6L566.4,754.9L559.8,766.8L552.6,778.3L544.7,789.4L536.2,800.1L527.1,810.2L517.4,819.8L507.3,828.9" fill="none" stroke="url(#rg)" stroke-width="20" stroke-linecap="round" opacity="0.25"/>
    <path d="M552.3,407.5L566.4,420.1L579.7,433.6L592.2,447.8L603.8,462.8L614.5,478.4L624.1,494.7L632.8,511.5L640.4,528.9L647.0,546.6L652.4,564.8L656.8,583.2L660.0,601.9L662.0,620.7L663.0,639.6L662.7,658.5L661.3,677.4L658.7,696.2L655.1,714.7L650.2,733.0L644.3,751.0L637.3,768.6L629.2,785.7L620.1,802.3L610.0,818.3L598.9,833.7L587.0,848.4L574.1,862.3L560.4,875.4L546.0,887.6L530.8,898.9L515.0,909.3L498.5,918.7L481.6,927.1L464.1,934.4L446.2,940.7L428.0,945.8L409.5,949.8L390.8,952.7L371.9,954.4L353.0,955.0L334.1,954.4L315.2,952.7L296.5,949.8L278.0,945.8L259.8,940.7L241.9,934.4L224.4,927.1L207.5,918.7L191.0,909.3L175.2,898.9L160.0,887.6L145.6,875.4L131.9,862.3L119.0,848.4L107.1,833.7L96.0,818.3L85.9,802.3L76.8,785.7L68.7,768.6L61.7,751.0L55.8,733.0L50.9,714.7L47.3,696.2L44.7,677.4L43.3,658.5L43.0,639.6L44.0,620.7L46.0,601.9L49.2,583.2L53.6,564.8L59.0,546.6L65.6,528.9L73.2,511.5L81.9,494.7L91.5,478.4L102.2,462.8L113.8,447.8L126.3,433.6L139.6,420.1L153.7,407.5" fill="none" stroke="url(#rg)" stroke-width="18" stroke-linecap="round" opacity="0.18"/>
    <path d="M54.2,895.7L39.5,877.0L25.9,857.4L13.6,837.0L2.5,816.0L-7.3,794.2L-15.8,772.0L-22.8,749.2L-28.5,726.1L-32.7,702.6L-35.5,679.0L-36.9,655.2L-36.8,631.4L-35.2,607.6L-32.2,584.0L-27.8,560.6L-21.9,537.5L-14.6,514.8L-6.0,492.6L4.0,471.0L15.3,450.0L27.8,429.7L41.5,410.3L56.4,391.7L72.5,374.1L89.5,357.5L107.6,341.9L126.5,327.5L146.3,314.3L166.9,302.3L188.2,291.5L210.1,282.1L232.5,274.1L255.4,267.4L278.6,262.2L302.1,258.3L325.8,256.0L349.6,255.0L373.4,255.5L397.1,257.5L420.7,260.9L444.0,265.8L467.0,272.0L489.6,279.7L511.6,288.7L533.1,299.1L553.9,310.7L573.9,323.6L593.1,337.7L611.4,352.9L628.8,369.2L645.1,386.6L660.3,404.9L674.4,424.1L687.3,444.1L698.9,464.9L709.3,486.4L718.3,508.4L726.0,531.0L732.2,554.0L737.1,577.3L740.5,600.9L742.5,624.6L743.0,648.4L742.0,672.2L739.7,695.9L735.8,719.4L730.6,742.6L723.9,765.5L715.9,787.9L706.5,809.8L695.7,831.1L683.7,851.7L670.5,871.5L656.1,890.4L640.5,908.5L623.9,925.5L606.3,941.6L587.7,956.5L568.3,970.2L548.0,982.7" fill="none" stroke="url(#rg)" stroke-width="16" stroke-linecap="round" opacity="0.12"/>
  </g>
  <!-- Tree — solid, painted in radial gradient to mask rings behind it -->
  <g transform="translate(-137, 23) scale(0.851)" fill="url(#rg)" stroke="none" opacity="1">
    <path d="M1024.58,418.59c-10.45-16.7-26.55-25.41-28.42-47.09-.6-7.07,3.4-11.71.74-22.08-2.21-8.53-35.74-51.65-43.71-56.95-6.84-4.57-20.11-6.43-23.3-9.62-3.69-3.68-7.3-22.85-14.67-32.1-9.87-12.39-24.44-12.78-29.31-19.21-5.53-7.3-2.68-20.04-10.32-27.8-7.51-7.64-18.12-4.91-26.04-8.61-6.96-3.25-13.07-16.24-21.84-19.77-12.86-5.17-25.45-.18-37.45-4.12-9.92-3.25-10.16-12.39-15.13-16.08-12.89-9.55-44.14,1.4-59.99-1.96-9.99-4.15-10.42-32.77-26.95-35.86-6.44-1.21-14.28,1.35-20.04.03-3.99-.91-5.57-14.92-18.13-17.31-18.1-3.44-65.69-.97-86.49-.05-22.31.97-17.63,3.19-41.82.14-19.81-2.51-32.68,7.43-44.65,6.67-9.65-.63-20.34-11.69-34.83-11.96-39.69-.75-56.28,38.98-96.26,32-19.39-3.39-46.46-13.35-66.9-16.37-26.18-3.87-27.14,11.84-44.09,21.39-12.65,7.14-29.4,5.39-36.4,19.04-3.35,6.56-2.53,16.05-6.1,21.62-2.91,4.53-16.5,10.38-22.38,15.75-6.79,6.2-19.92,22.9-25.76,26.22-12.63,7.18-31.88-1.23-40.24,9.19-5.47,6.81-7.49,23.23-12.19,31.95-3.85,7.14-15.51,14.35-17.93,23.62-5.42,20.75,8.09,30.92,6,47.37-2.62,20.63-28.84,23.17-24.27,62.78.83,7.15,13.15,45.18,16.42,52.78,1.81,4.24,7.3,4.02,7.86,6.71,2.45,11.42-3.44,27.06,4.13,38.61l94.62,-13.23c32.22,24.22,65.62,33.94,104.46,41.11,37.73,6.97,33.55,8.03,66.12,20.51,36.15,13.86,76.7-.24,107.43,13.87,17.86,8.2,32.2,22.43,38.18,41.53,21.01,67.02-44.2,131.38-19.92,201.48.07.13.12.26.14.41.28,2.03.32,4.06.13,6.05,2.64,39.57-24.54,73.18-27.9,111.64h.51c-.33,1.1-.51,2.27-.51,3.49c0,15,0,35,0,50.77c0,11.05,8.95,20,20,20c60,0,120,8,180,0c11.05,0,20,-8.95,20,-20c-2,-50,-3,-70,0,-97,3,-27,2.5,-50,0,-78,-2.5,-28,-3.5,-55,0,-82,3.5,-27,2,-60,0,-65,-2,-5,-2.5,-40,-2.2,-67.2,15.79-50.22,80.56-94,133.68-87.56,8.18.98,15.29,5.68,24.5,6.67,34.06,3.64,51.12-6.86,89.09,4.45,5.42,1.61,10.97,8.48,15.49,8.95,6.18.63,8.96-10.19,20.12-10.26,19.58-.14,39.62,23.81,68.68.5,8.48-6.8,8.41-65.64,7.81-80.11ZM371.15,401.49c16.84.62,36.79,2.49,41.92-17.11l4.31.14c20.12,8.73,32.26,23.53,33.21,45.98-2.64,9.24-42.98,6.3-51.8,4-12.28-3.22-31.12-18.56-27.63-33.01ZM355.53,512.4c-24.66-3.18-46.27-16.97-71.01-22.58-21.3-4.83-57.13.08-62.37-22.5,11.43-.96,24.53,1.75,35.63-.76,11.86-2.66,16.04-17.18,27.54-16.05,32.51,3.19,45.15,43.96,71.94,54.98l-1.73,6.9ZM491.29,508.44c-9.8-1.44-27.02-17.43-45.36-16.63-24.85,1.09-29.94,29.1-59.43,17.31-15-6-13.98-16.87-22.26-26.22-11.81-13.34-29.53-26.34-39.89-39.82-2.66-3.48-6.72-4.4-5.16-10.41l42.91-2.66c28.51,42.8,76.61,20.87,109.59,35.54,17.52,7.81,39.58,45.85,19.6,42.89ZM523.6,491.55l-17.22-26.03c-6.08-8.95-30.69-15.49-34.95-21.38-8.25-11.43-4.53-30.75-8.23-42.88-2.98-9.8-15.66-13.41-15.78-24.03,26.49,9.52,42.33,14.66,70.31,3.96,40.15,30.55,15.23,71.64,5.87,110.35ZM588.63,497.65c-9.04,7.74-29.45,4.58-33.21-8.61-3.23-11.33,5.38-22.34,6.37-33.84,1.02-12.09,1.82-40.84-.2-51.84-3.4-18.52-23.97-20.93-27.52-36.55,11.59,8.12,23.15-4.03,34.62,1.65,25.38,12.57,38.4,113.39,19.94,129.19ZM599.89,366.84l45.01-.04c3.65,7.09-9.5,71.08-24.18,76.24l-20.83-76.2ZM631.8,497.72c-3.39-1.92-8.53-16.34-7.82-21.52,1.09-7.89,16.91-21.25,21.17-31.2,7.36-17.15,9.21-42.38,13.68-60.87,13.18,9.65,41.72-8.68,43.4,12.02,1.93,23.73-8.2,45.43-19.84,65.3-8.54,14.58-29.41,48.31-50.58,36.28ZM765.73,447.53c-1.86,7.6-52.18,45.6-62.2,52.38-3.81,2.59-32.69,21.09-34.32,19.37,4.92-22.18,29.6-70.77,49.51-80.43,7.74-3.77,37.29-9.62,43.51-5.67,1.81,1.16,4.25,11.22,3.5,14.35ZM866.72,477.7c-16.01-1.39-34.64,1.93-50.24,0-6.52-.8-18.86-10.97-29.45-6.94-6.85-5.38,19.94-17.35,25.88-17.42,11.1-.13,40.56,9.38,49.43,16.43,2.81,2.22,6.34-.13,4.38,7.93Z"/>
  </g>
  <!-- BtR acronym — white, BTR Groovy font outlines, vertically centered at y=526.6 (matching v2 inline wordmark) -->
  <!-- t at 70% cap height (baseline-aligned), 2px ink-edge gaps, scale 7.3479 touching outermost ring inner edge -->
  <g transform="translate(-79.8, 306.2) scale(7.3479)" fill="#FFFFFF" stroke="none">
    <!-- B -->
    <path d="M1.2,58.3Q1.2,59.3,2.2,59.3L20.6,60.0Q31.3,59.2,37.5,54.2Q42.0,50.2,41.2,44.4Q40.4,38.3,35.7,33.6Q33.3,31.4,31.0,30.7Q30.1,30.4,31.0,30.0Q34.4,29.0,38.2,25.8Q41.6,22.2,42.1,16.5Q41.5,9.1,35.4,3.9Q30.0,-0.1,19.3,0.7L1.0,0.0Q0.0,0.0,0.0,1.0ZM17.0,11.5Q16.8,9.9,18.4,9.9L21.3,9.7Q24.6,9.5,26.9,10.9Q29.5,12.8,29.7,16.0Q29.6,18.5,28.2,20.7Q25.8,23.4,21.3,23.7L18.4,23.9Q16.8,23.9,17.0,22.2ZM15.7,39.1Q15.6,37.4,17.3,37.4L20.2,37.3Q24.7,37.0,27.2,38.3Q30.0,40.7,30.5,43.9Q30.9,46.4,29.5,49.0Q27.2,52.1,21.9,52.5L19.0,52.7Q17.4,52.7,17.3,51.0Z" fill-rule="evenodd"/>
    <!-- t at 70% cap height, baseline-aligned -->
    <g transform="translate(13.21, 18.0) scale(0.7)">
      <path d="M58.2,58.9Q58.2,59.9,59.2,59.9L73.7,59.5Q74.7,59.5,74.7,58.5L75.2,16.0Q75.2,15.1,76.2,15.1L85.9,14.6Q88.4,14.7,88.2,12.3L86.9,2.4Q86.6,-0.1,84.2,-0.2L46.3,-0.1Q43.8,-0.2,44.1,2.3L45.4,12.2Q45.6,14.6,48.0,14.7L57.7,15.4Q58.7,15.5,58.7,16.5Z"/>
    </g>
    <!-- R shifted left to maintain 2px gap from smaller t -->
    <g transform="translate(-13.25, 0)">
      <path d="M91.4,58.3Q91.4,59.3,92.4,59.3L106.9,60.0Q107.9,60.1,107.8,59.1L106.6,34.5Q106.6,33.7,107.3,33.7L107.9,33.7Q108.6,33.7,108.9,34.3L117.0,58.5Q117.4,59.4,118.3,59.4L130.4,59.3Q131.3,59.3,130.9,58.3L117.4,32.3Q117.0,31.4,117.9,30.9Q122.2,28.6,126.1,24.4Q129.9,20.5,130.2,15.6Q129.6,9.0,124.9,4.7Q119.4,-0.1,109.5,0.7L91.2,0.0Q90.2,0.0,90.2,1.0ZM108.0,11.1Q107.8,9.9,109.0,9.9L111.5,9.7Q113.6,9.5,115.8,10.6Q118.1,12.5,118.3,15.8Q118.2,19.1,116.7,21.6Q114.6,24.7,111.3,24.9L108.9,25.1Q107.6,25.1,107.8,23.9Z" fill-rule="evenodd"/>
    </g>
  </g>
</svg>