<svg viewBox="0 0 491 90" xmlns="http://www.w3.org/2000/svg">
  <defs>
    <linearGradient id="grad" x1="0%" y1="0%" x2="100%" y2="0%">
      <stop offset="0%" stop-color="#D6246E"/>
      <stop offset="50%" stop-color="#E8652B"/>
      <stop offset="100%" stop-color="#F2A922"/>
    </linearGradient>
  </defs>
  <rect width="491" height="90" fill="#1A1018"/>
  <path d="M5.9,62.0 Q5.9,62.8,6.6,62.8 L20.0,63.3 Q27.8,62.7,32.4,59.0 Q35.6,56.2,35.1,52.0 Q34.5,47.5,31.0,44.0 Q29.3,42.5,27.6,41.9 Q27.0,41.7,27.6,41.5 Q30.1,40.7,32.8,38.3 Q35.3,35.8,35.7,31.6 Q35.2,26.2,30.8,22.4 Q26.9,19.5,19.1,20.1 L5.7,19.6 Q5.0,19.6,5.0,20.3 Z M17.4,28.0 Q17.2,26.8,18.4,26.8 L20.5,26.6 Q22.9,26.5,24.6,27.5 Q26.5,28.9,26.7,31.3 Q26.6,33.1,25.6,34.7 Q23.8,36.6,20.5,36.8 L18.4,37.0 Q17.2,37.0,17.4,35.8 Z M16.5,48.1 Q16.4,46.9,17.6,46.9 L19.7,46.7 Q23.0,46.5,24.9,47.5 Q26.9,49.2,27.3,51.6 Q27.5,53.4,26.5,55.3 Q24.9,57.5,21.0,57.8 L18.9,58.0 Q17.7,58.0,17.6,56.8 Z M38.6,62.8 L64.1,62.6 Q65.3,62.6,65.5,60.8 L65.3,53.6 Q65.0,51.8,63.8,51.8 L50.3,52.6 L49.6,46.0 L59.5,45.3 Q60.7,45.2,60.7,44.0 L61.3,38.0 Q61.5,36.8,60.3,36.9 L50.4,37.6 L50.9,31.0 L64.4,30.2 Q65.6,30.2,65.5,28.4 L64.5,21.2 Q64.4,19.4,63.2,19.4 L37.7,19.6 Z M67.5,19.4 L77.1,43.4 L78.0,63.2 L90.0,62.9 L89.1,43.1 L98.7,19.5 L85.5,20.0 Q92.8,31.6,83.8,37.6 Q76.0,31.9,80.7,20.2 Z M118.2,63.9 Q126.6,63.3,131.9,57.8 Q135.3,53.2,134.6,41.2 Q135.7,29.2,131.2,24.2 Q125.8,18.9,117.4,19.5 Q109.0,19.4,104.8,24.4 Q101.8,29.0,100.7,41.0 Q101.4,53.0,105.5,58.0 Q109.8,63.8,118.2,63.9 Z M118.4,54.9 Q113.0,55.0,110.4,48.8 Q108.9,45.2,109.1,41.6 Q109.7,38.0,111.3,34.4 Q113.2,29.8,118.6,29.7 Q124.0,29.3,125.7,34.0 Q126.5,37.5,125.9,41.1 Q125.7,44.7,124.8,48.4 Q123.8,54.5,118.4,54.9 Z M137.7,62.8 L149.7,63.4 L148.9,42.4 L155.7,63.0 L167.7,62.8 L166.8,19.6 L154.8,19.8 L155.1,40.8 L148.8,20.2 L136.8,19.6 Z M170.6,62.0 Q170.6,62.8,171.3,62.8 L182.9,63.4 Q191.3,62.8,196.5,57.8 Q200.8,52.6,200.1,41.2 Q201.2,29.8,195.8,24.2 Q190.4,19.6,182.0,20.2 L170.4,19.6 Q169.7,19.6,169.7,20.3 Z M182.3,29.5 Q182.2,28.3,183.4,28.3 L184.3,28.2 Q188.2,27.9,190.5,31.7 Q191.7,35.2,190.8,41.2 Q190.8,47.2,189.7,50.9 Q188.2,54.9,184.3,55.2 L183.4,55.3 Q182.2,55.3,182.0,54.1 Z" fill="#FFF8F0"/>
  <path d="M215.6,62.7 Q215.6,63.2,216.1,63.2 L223.5,63.0 Q224.0,63.0,224.0,62.5 L224.2,40.8 Q224.2,40.3,224.7,40.3 L229.7,40.1 Q230.9,40.1,230.8,38.8 L230.2,33.8 Q230.0,32.5,228.8,32.5 L209.5,32.5 Q208.2,32.5,208.3,33.8 L209.0,38.8 Q209.1,40.1,210.3,40.1 L215.3,40.4 Q215.8,40.5,215.8,41.0 Z M233.5,62.8 L241.9,63.3 L241.2,51.5 L245.4,51.2 L246.1,63.0 L254.5,62.9 L253.8,32.6 L245.4,32.8 L246.0,44.5 L241.8,44.8 L241.2,33.0 L232.8,32.6 Z M257.1,62.8 L275.0,62.7 Q275.8,62.7,276.0,61.5 L275.8,56.4 Q275.6,55.2,274.8,55.1 L265.3,55.7 L264.8,51.1 L271.8,50.6 Q272.6,50.6,272.6,49.7 L273.0,45.5 Q273.2,44.7,272.3,44.7 L265.4,45.2 L265.8,40.6 L275.2,40.0 Q276.1,40.1,276.0,38.8 L275.3,33.8 Q275.2,32.5,274.3,32.5 L256.5,32.6 Z" fill="#FFF8F0" opacity="0.5"/>
  <path d="M284.9,62.0 Q284.9,62.8,285.6,62.8 L296.2,63.3 Q296.9,63.4,296.8,62.6 L295.9,44.7 Q295.9,44.2,296.5,44.2 L296.9,44.1 Q297.4,44.1,297.6,44.6 L303.5,62.2 Q303.8,62.9,304.5,62.9 L313.3,62.8 Q314.0,62.8,313.7,62.1 L303.8,43.1 Q303.5,42.5,304.2,42.1 Q307.3,40.4,310.1,37.4 Q313.0,34.5,313.1,30.9 Q312.7,26.1,309.3,23.0 Q305.3,19.5,298.1,20.1 L284.7,19.6 Q284.0,19.6,284.0,20.3 Z M296.9,27.7 Q296.8,26.8,297.7,26.8 L299.5,26.6 Q301.0,26.5,302.6,27.3 Q304.3,28.7,304.4,31.1 Q304.4,33.5,303.3,35.3 Q301.8,37.6,299.4,37.7 L297.6,37.9 Q296.7,37.9,296.8,37.0 Z M316.7,62.8 L328.7,63.4 L327.8,46.6 L333.8,46.2 L334.7,63.0 L346.7,62.8 L345.8,19.6 L333.8,19.8 L334.6,36.6 L328.6,37.0 L327.8,20.2 L315.8,19.6 Z M348.7,19.4 L358.3,43.4 L359.2,63.2 L371.2,62.9 L370.3,43.1 L379.9,19.5 L366.7,20.0 Q373.9,31.6,365.0,37.6 Q357.1,31.9,361.9,20.2 Z M392.2,62.5 Q392.2,63.2,392.9,63.2 L403.5,62.9 Q404.2,62.9,404.2,62.2 L404.6,31.3 Q404.6,30.5,405.3,30.5 L412.4,30.2 Q414.2,30.3,414.0,28.5 L413.1,21.3 Q412.9,19.5,411.1,19.4 L383.5,19.5 Q381.7,19.4,381.9,21.2 L382.8,28.4 Q383.0,30.2,384.8,30.3 L391.8,30.8 Q392.6,30.8,392.6,31.6 Z M416.9,62.8 L428.9,63.4 L428.0,46.6 L434.0,46.2 L434.9,63.0 L446.9,62.8 L446.0,19.6 L434.0,19.8 L434.9,36.6 L428.9,37.0 L428.0,20.2 L416.0,19.6 Z M449.8,62.7 L461.8,63.4 L461.2,40.6 L466.6,56.0 L470.2,55.7 L473.8,39.8 L474.4,62.6 L486.4,63.2 L485.5,20.0 L472.9,19.4 L467.2,43.8 L461.5,20.2 L448.9,19.5 Z" fill="url(#grad)"/>
</svg>