<svg viewBox="0 0 512 512" xmlns="http://www.w3.org/2000/svg">
  <circle cx="256" cy="256" r="26" fill="#1A1018"/>
  <path d="M306.9,205.1L308.8,207.0L310.6,209.1L312.3,211.2L314.0,213.3L315.6,215.6L317.1,217.8L318.5,220.2L319.8,222.6L321.0,225.0L322.1,227.5L323.1,230.0L324.1,232.6L324.9,235.1L325.7,237.8L326.3,240.4L326.8,243.1L327.3,245.8L327.6,248.5L327.8,251.2L328.0,253.9L328.0,256.6L327.9,259.3L327.7,262.1L327.5,264.8L327.1,267.5L326.6,270.1L326.0,272.8L325.3,275.4L324.5,278.0L323.7,280.6L322.7,283.2L321.6,285.7L320.4,288.1L319.2,290.5L317.8,292.9L316.4,295.2L314.9,297.5L313.2,299.7L311.6,301.8L309.8,303.9L307.9,305.9L306.0,307.8L304.0,309.6L302.0,311.4L299.8,313.1L297.6,314.7L295.4,316.3L293.1,317.7L290.7,319.1L288.3,320.3L285.9,321.5L283.4,322.6L280.8,323.6L278.2,324.5L275.6,325.3L273.0,326.0L270.4,326.6L267.7,327.0L265.0,327.4L262.3,327.7L259.6,327.9L256.8,328.0L254.1,328.0L251.4,327.9L248.7,327.6L246.0,327.3L243.3,326.9L240.6,326.3L238.0,325.7L235.4,325.0L232.8,324.1L230.2,323.2L227.7,322.2L225.2,321.1L222.8,319.9L220.4,318.6L218.0,317.2L215.7,315.7L213.5,314.1L211.3,312.5L209.2,310.7L207.2,308.9L205.2,307.1L203.3,305.1L201.5,303.1L199.8,301.0L198.1,298.8L196.5,296.6L195.1,294.3L193.6,292.0L192.3,289.6L191.1,287.2L190.0,284.7L188.9,282.2L188.0,279.6L187.1,277.1L186.4,274.4L185.8,271.8L185.2,269.1L184.8,266.4L184.4,263.7L184.2,261.0L184.0,258.3L184.0,255.6L184.1,252.9L184.2,250.1L184.5,247.4L184.9,244.7L185.4,242.1L185.9,239.4L186.6,236.8L187.4,234.1L188.3,231.6L189.2,229.0L190.3,226.5L191.5,224.1L192.7,221.6L194.1,219.3L195.5,217.0L197.0,214.7" fill="none" stroke="#1A1018" stroke-width="24" stroke-linecap="round" opacity="1.00"/>
  <path d="M276.8,374.2L272.4,374.9L268.0,375.4L263.6,375.8L259.1,376.0L254.7,376.0L250.2,375.9L245.8,375.6L241.4,375.1L237.0,374.5L232.6,373.7L228.2,372.7L223.9,371.6L219.7,370.4L215.4,368.9L211.3,367.4L207.2,365.6L203.2,363.7L199.2,361.7L195.3,359.5L191.5,357.2L187.8,354.7L184.2,352.2L180.7,349.4L177.3,346.6L174.0,343.6L170.8,340.5L167.7,337.3L164.8,333.9L161.9,330.5L159.2,327.0L156.7,323.3L154.2,319.6L151.9,315.8L149.8,311.9L147.8,307.9L146.0,303.8L144.3,299.7L142.7,295.6L141.3,291.3L140.1,287.1L139.0,282.7L138.1,278.4L137.4,274.0L136.8,269.6L136.3,265.2L136.1,260.7L136.0,256.3L136.1,251.8L136.3,247.4L136.7,242.9L137.3,238.5L138.0,234.1L138.9,229.8L140.0,225.4L141.2,221.2L142.5,216.9L144.1,212.8L145.7,208.6L147.6,204.6L149.6,200.6L151.7,196.7L154.0,192.9L156.4,189.1L158.9,185.5L161.6,181.9L164.4,178.5L167.4,175.1L170.4,171.9L173.6,168.8L176.9,165.8L180.3,162.9L183.8,160.2L187.4,157.6L191.1,155.1L194.9,152.7L198.7,150.5L202.7,148.5L206.7,146.6L210.8,144.8L215.0,143.2L219.2,141.8L223.4,140.5L227.7,139.4L232.1,138.4L236.5,137.6L240.9,137.0L245.3,136.5L249.7,136.2L254.2,136.0L258.6,136.0L263.1,136.2L267.5,136.6L271.9,137.1L276.3,137.7L280.7,138.6L285.0,139.6L289.3,140.7L293.6,142.0L297.8,143.5L301.9,145.1L306.0,146.9L310.0,148.8L313.9,150.9L317.8,153.1L321.6,155.5L325.3,158.0L328.8,160.6L332.3,163.4L335.7,166.3L339.0,169.3L342.1,172.5L345.2,175.7L348.1,179.1L350.9,182.5L353.5,186.1L356.1,189.8L358.5,193.5L360.7,197.4L362.8,201.3L364.8,205.3" fill="none" stroke="#1A1018" stroke-width="22" stroke-linecap="round" opacity="0.85"/>
  <path d="M413.9,198.5L415.9,204.3L417.6,210.2L419.2,216.1L420.5,222.0L421.7,228.0L422.6,234.1L423.2,240.1L423.7,246.2L424.0,252.3L424.0,258.4L423.8,264.5L423.4,270.6L422.7,276.7L421.9,282.8L420.8,288.8L419.5,294.7L418.0,300.7L416.2,306.5L414.3,312.3L412.1,318.0L409.8,323.7L407.2,329.2L404.4,334.7L401.5,340.0L398.3,345.2L395.0,350.3L391.5,355.3L387.8,360.2L383.9,364.9L379.9,369.5L375.7,373.9L371.3,378.2L366.8,382.3L362.1,386.3L357.3,390.0L352.4,393.6L347.3,397.0L342.1,400.3L336.8,403.3L331.4,406.1L325.9,408.8L320.3,411.2L314.6,413.4L308.8,415.5L303.0,417.3L297.1,418.9L291.2,420.3L285.2,421.4L279.1,422.4L273.1,423.1L267.0,423.6L260.9,423.9L254.8,424.0L248.7,423.8L242.6,423.5L236.5,422.9L230.4,422.0L224.4,421.0L218.4,419.7L212.5,418.3L206.6,416.6L200.8,414.7L195.1,412.6L189.5,410.3L183.9,407.7L178.4,405.0L173.1,402.1L167.8,399.0L162.7,395.7L157.6,392.2L152.8,388.5L148.0,384.7L143.4,380.7L138.9,376.5L134.6,372.2L130.5,367.7L126.5,363.0L122.7,358.3L119.1,353.4L115.6,348.3L112.4,343.2L109.3,337.9L106.4,332.5L103.7,327.0L101.3,321.4L99.0,315.7L96.9,310.0L95.1,304.2L93.4,298.3L92.0,292.4L90.8,286.4L89.8,280.3L89.0,274.3L88.4,268.2L88.1,262.1L88.0,256.0L88.1,249.9L88.4,243.8L89.0,237.7L89.8,231.7L90.8,225.6L92.0,219.6L93.4,213.7L95.1,207.8L96.9,202.0L99.0,196.3L101.3,190.6L103.7,185.0L106.4,179.5L109.3,174.1L112.4,168.8L115.6,163.7L119.1,158.6L122.7,153.7L126.5,149.0L130.5,144.3L134.6,139.8L138.9,135.5L143.4,131.3L148.0,127.3" fill="none" stroke="#1A1018" stroke-width="20" stroke-linecap="round" opacity="0.70"/>
  <path d="M364.0,443.1L357.3,446.8L350.4,450.3L343.4,453.5L336.3,456.5L329.1,459.2L321.9,461.7L314.5,463.9L307.0,465.9L299.5,467.6L292.0,469.0L284.3,470.1L276.7,471.0L269.0,471.6L261.3,471.9L253.6,472.0L246.0,471.8L238.3,471.3L230.6,470.5L223.0,469.5L215.4,468.2L207.9,466.6L200.4,464.7L193.0,462.6L185.7,460.2L178.4,457.6L171.3,454.7L164.3,451.6L157.4,448.2L150.6,444.5L143.9,440.7L137.4,436.6L131.1,432.2L124.9,427.7L118.8,422.9L113.0,417.9L107.3,412.7L101.8,407.3L96.5,401.7L91.4,395.9L86.6,390.0L81.9,383.8L77.5,377.6L73.2,371.1L69.3,364.5L65.5,357.8L62.0,351.0L58.7,344.0L55.7,336.9L53.0,329.7L50.5,322.4L48.2,315.1L46.3,307.6L44.6,300.1L43.1,292.6L42.0,285.0L41.1,277.3L40.4,269.7L40.1,262.0L40.0,254.3L40.2,246.6L40.7,238.9L41.4,231.2L42.4,223.6L43.7,216.0L45.3,208.5L47.1,201.0L49.2,193.6L51.6,186.3L54.2,179.0L57.0,171.9L60.2,164.9L63.5,157.9L67.2,151.1L71.0,144.5L75.1,138.0L79.4,131.6L84.0,125.4L88.7,119.3L93.7,113.5L98.9,107.8L104.3,102.3L109.8,97.0L115.6,91.9L121.5,87.0L127.6,82.3L133.9,77.8L140.3,73.6L146.9,69.6L153.6,65.8L160.5,62.3L167.4,59.0L174.5,56.0L181.7,53.2L189.0,50.7L196.3,48.4L203.7,46.4L211.2,44.7L218.8,43.2L226.4,42.0L234.0,41.1L241.7,40.5L249.4,40.1L257.1,40.0L264.8,40.2L272.5,40.6L280.1,41.4L287.8,42.3L295.4,43.6L302.9,45.2L310.4,47.0L317.8,49.0L325.1,51.4L332.4,54.0L339.5,56.8L346.6,59.9L353.5,63.3L360.3,66.9L367.0,70.7L373.5,74.8L379.9,79.1" fill="none" stroke="#1A1018" stroke-width="18" stroke-linecap="round" opacity="0.55"/>

</svg>